<svg xmlns="http://www.w3.org/2000/svg" version="1.1" xmlns:xlink="http://www.w3.org/1999/xlink" xmlns:svgjs="http://svgjs.com/svgjs" width="2500" height="1000" preserveAspectRatio="none" viewBox="0 0 2500 1000"><g mask="url(&quot;#SvgjsMask1238&quot;)" fill="none"><g mask="url(&quot;#SvgjsMask1239&quot;)"><path d="M857.5 472.5L402.5 472.5L192.5 262.5" stroke-width="5.83" stroke="rgba(200, 202, 203, 1)"></path><path d="M848.75 472.5 a8.75 8.75 0 1 0 17.5 0 a8.75 8.75 0 1 0 -17.5 0zM183.75 262.5 a8.75 8.75 0 1 0 17.5 0 a8.75 8.75 0 1 0 -17.5 0z" fill="rgba(200, 202, 203, 1)"></path><path d="M262.5 892.5L157.5 997.5L17.5 997.5" stroke-width="5.83" stroke="rgba(200, 202, 203, 1)"></path><path d="M253.75 892.5 a8.75 8.75 0 1 0 17.5 0 a8.75 8.75 0 1 0 -17.5 0zM8.75 997.5 a8.75 8.75 0 1 0 17.5 0 a8.75 8.75 0 1 0 -17.5 0z" fill="rgba(200, 202, 203, 1)"></path><path d="M1522.5 822.5L1522.5 892.5L1417.5 997.5L997.5 997.5L962.5 962.5L927.5 962.5" stroke-width="5.83" stroke="rgba(200, 202, 203, 1)"></path><path d="M1513.75 822.5 a8.75 8.75 0 1 0 17.5 0 a8.75 8.75 0 1 0 -17.5 0zM918.75 962.5 a8.75 8.75 0 1 0 17.5 0 a8.75 8.75 0 1 0 -17.5 0z" fill="rgba(200, 202, 203, 1)"></path><path d="M507.5 157.5L437.5 87.5L262.5 87.5L157.5 192.5L17.5 192.5" stroke-width="5.83" stroke="rgba(200, 202, 203, 1)"></path><path d="M498.75 157.5 a8.75 8.75 0 1 0 17.5 0 a8.75 8.75 0 1 0 -17.5 0zM8.75 192.5 a8.75 8.75 0 1 0 17.5 0 a8.75 8.75 0 1 0 -17.5 0z" fill="rgba(200, 202, 203, 1)"></path><path d="M2362.5 927.5L2362.5 997.5" stroke-width="5.83" stroke="rgba(200, 202, 203, 1)"></path><path d="M2353.75 927.5 a8.75 8.75 0 1 0 17.5 0 a8.75 8.75 0 1 0 -17.5 0zM2353.75 997.5 a8.75 8.75 0 1 0 17.5 0 a8.75 8.75 0 1 0 -17.5 0z" fill="rgba(200, 202, 203, 1)"></path><path d="M2467.5 997.5L2502.5 962.5L2502.5 332.5" stroke-width="5.83" stroke="rgba(200, 202, 203, 1)"></path><path d="M2458.75 997.5 a8.75 8.75 0 1 0 17.5 0 a8.75 8.75 0 1 0 -17.5 0zM2493.75 332.5 a8.75 8.75 0 1 0 17.5 0 a8.75 8.75 0 1 0 -17.5 0z" fill="rgba(200, 202, 203, 1)"></path><path d="M52.5 822.5L367.5 507.5L507.5 507.5L717.5 717.5" stroke-width="5.83" stroke="rgba(200, 202, 203, 1)"></path><path d="M43.75 822.5 a8.75 8.75 0 1 0 17.5 0 a8.75 8.75 0 1 0 -17.5 0zM708.75 717.5 a8.75 8.75 0 1 0 17.5 0 a8.75 8.75 0 1 0 -17.5 0z" fill="rgba(200, 202, 203, 1)"></path><path d="M1487.5 52.5L857.5 52.5L822.5 87.5" stroke-width="5.83" stroke="rgba(200, 202, 203, 1)"></path><path d="M1478.75 52.5 a8.75 8.75 0 1 0 17.5 0 a8.75 8.75 0 1 0 -17.5 0zM813.75 87.5 a8.75 8.75 0 1 0 17.5 0 a8.75 8.75 0 1 0 -17.5 0z" fill="rgba(200, 202, 203, 1)"></path><path d="M2467.5 437.5L2467.5 962.5L2432.5 997.5L2397.5 997.5" stroke-width="5.83" stroke="rgba(200, 202, 203, 1)"></path><path d="M2458.75 437.5 a8.75 8.75 0 1 0 17.5 0 a8.75 8.75 0 1 0 -17.5 0zM2388.75 997.5 a8.75 8.75 0 1 0 17.5 0 a8.75 8.75 0 1 0 -17.5 0z" fill="rgba(200, 202, 203, 1)"></path><path d="M647.5 612.5L647.5 507.5" stroke-width="5.83" stroke="rgba(200, 202, 203, 1)"></path><path d="M638.75 612.5 a8.75 8.75 0 1 0 17.5 0 a8.75 8.75 0 1 0 -17.5 0zM638.75 507.5 a8.75 8.75 0 1 0 17.5 0 a8.75 8.75 0 1 0 -17.5 0z" fill="rgba(200, 202, 203, 1)"></path><path d="M2257.5 157.5L2467.5 367.5L2467.5 402.5L2047.5 822.5" stroke-width="5.83" stroke="rgba(200, 202, 203, 1)"></path><path d="M2248.75 157.5 a8.75 8.75 0 1 0 17.5 0 a8.75 8.75 0 1 0 -17.5 0zM2038.75 822.5 a8.75 8.75 0 1 0 17.5 0 a8.75 8.75 0 1 0 -17.5 0z" fill="rgba(200, 202, 203, 1)"></path><path d="M892.5 157.5L927.5 157.5L1032.5 262.5L1172.5 262.5L1277.5 157.5L1277.5 87.5" stroke-width="5.83" stroke="rgba(200, 202, 203, 1)"></path><path d="M883.75 157.5 a8.75 8.75 0 1 0 17.5 0 a8.75 8.75 0 1 0 -17.5 0zM1268.75 87.5 a8.75 8.75 0 1 0 17.5 0 a8.75 8.75 0 1 0 -17.5 0z" fill="rgba(200, 202, 203, 1)"></path><path d="M1172.5 367.5L1242.5 297.5L1242.5 227.5L1277.5 192.5L1452.5 192.5L1767.5 507.5" stroke-width="5.83" stroke="rgba(200, 202, 203, 1)"></path><path d="M1163.75 367.5 a8.75 8.75 0 1 0 17.5 0 a8.75 8.75 0 1 0 -17.5 0zM1758.75 507.5 a8.75 8.75 0 1 0 17.5 0 a8.75 8.75 0 1 0 -17.5 0z" fill="rgba(200, 202, 203, 1)"></path><path d="M752.5 682.5L857.5 682.5L1137.5 402.5L1137.5 332.5L1102.5 297.5L927.5 297.5" stroke-width="5.83" stroke="rgba(200, 202, 203, 1)"></path><path d="M743.75 682.5 a8.75 8.75 0 1 0 17.5 0 a8.75 8.75 0 1 0 -17.5 0zM918.75 297.5 a8.75 8.75 0 1 0 17.5 0 a8.75 8.75 0 1 0 -17.5 0z" fill="rgba(200, 202, 203, 1)"></path><path d="M682.5 157.5L577.5 262.5L577.5 437.5" stroke-width="5.83" stroke="rgba(200, 202, 203, 1)"></path><path d="M673.75 157.5 a8.75 8.75 0 1 0 17.5 0 a8.75 8.75 0 1 0 -17.5 0zM568.75 437.5 a8.75 8.75 0 1 0 17.5 0 a8.75 8.75 0 1 0 -17.5 0z" fill="rgba(200, 202, 203, 1)"></path><path d="M367.5 647.5L437.5 577.5L542.5 577.5L787.5 822.5L787.5 997.5" stroke-width="5.83" stroke="rgba(200, 202, 203, 1)"></path><path d="M358.75 647.5 a8.75 8.75 0 1 0 17.5 0 a8.75 8.75 0 1 0 -17.5 0zM778.75 997.5 a8.75 8.75 0 1 0 17.5 0 a8.75 8.75 0 1 0 -17.5 0z" fill="rgba(200, 202, 203, 1)"></path><path d="M2152.5 402.5L2292.5 542.5" stroke-width="5.83" stroke="rgba(200, 202, 203, 1)"></path><path d="M2143.75 402.5 a8.75 8.75 0 1 0 17.5 0 a8.75 8.75 0 1 0 -17.5 0zM2283.75 542.5 a8.75 8.75 0 1 0 17.5 0 a8.75 8.75 0 1 0 -17.5 0z" fill="rgba(200, 202, 203, 1)"></path><path d="M2397.5 192.5L2397.5 17.5" stroke-width="5.83" stroke="rgba(200, 202, 203, 1)"></path><path d="M2388.75 192.5 a8.75 8.75 0 1 0 17.5 0 a8.75 8.75 0 1 0 -17.5 0zM2388.75 17.5 a8.75 8.75 0 1 0 17.5 0 a8.75 8.75 0 1 0 -17.5 0z" fill="rgba(200, 202, 203, 1)"></path><path d="M1802.5 787.5L2012.5 997.5L2327.5 997.5" stroke-width="5.83" stroke="rgba(200, 202, 203, 1)"></path><path d="M1793.75 787.5 a8.75 8.75 0 1 0 17.5 0 a8.75 8.75 0 1 0 -17.5 0zM2318.75 997.5 a8.75 8.75 0 1 0 17.5 0 a8.75 8.75 0 1 0 -17.5 0z" fill="rgba(200, 202, 203, 1)"></path><path d="M1417.5 857.5L1312.5 962.5L1277.5 962.5L1032.5 717.5L752.5 717.5" stroke-width="5.83" stroke="rgba(200, 202, 203, 1)"></path><path d="M1408.75 857.5 a8.75 8.75 0 1 0 17.5 0 a8.75 8.75 0 1 0 -17.5 0zM743.75 717.5 a8.75 8.75 0 1 0 17.5 0 a8.75 8.75 0 1 0 -17.5 0z" fill="rgba(200, 202, 203, 1)"></path><path d="M1592.5 647.5L1592.5 577.5L1277.5 262.5L1277.5 227.5" stroke-width="5.83" stroke="rgba(200, 202, 203, 1)"></path><path d="M1583.75 647.5 a8.75 8.75 0 1 0 17.5 0 a8.75 8.75 0 1 0 -17.5 0zM1268.75 227.5 a8.75 8.75 0 1 0 17.5 0 a8.75 8.75 0 1 0 -17.5 0z" fill="rgba(200, 202, 203, 1)"></path><path d="M1767.5 892.5L1802.5 857.5L1837.5 857.5L1977.5 997.5" stroke-width="5.83" stroke="rgba(200, 202, 203, 1)"></path><path d="M1758.75 892.5 a8.75 8.75 0 1 0 17.5 0 a8.75 8.75 0 1 0 -17.5 0zM1968.75 997.5 a8.75 8.75 0 1 0 17.5 0 a8.75 8.75 0 1 0 -17.5 0z" fill="rgba(200, 202, 203, 1)"></path><path d="M262.5 17.5L262.5 52.5L157.5 157.5L17.5 157.5" stroke-width="5.83" stroke="rgba(200, 202, 203, 1)"></path><path d="M253.75 17.5 a8.75 8.75 0 1 0 17.5 0 a8.75 8.75 0 1 0 -17.5 0zM8.75 157.5 a8.75 8.75 0 1 0 17.5 0 a8.75 8.75 0 1 0 -17.5 0z" fill="rgba(200, 202, 203, 1)"></path><path d="M542.5 962.5L507.5 997.5L192.5 997.5" stroke-width="5.83" stroke="rgba(200, 202, 203, 1)"></path><path d="M533.75 962.5 a8.75 8.75 0 1 0 17.5 0 a8.75 8.75 0 1 0 -17.5 0zM183.75 997.5 a8.75 8.75 0 1 0 17.5 0 a8.75 8.75 0 1 0 -17.5 0z" fill="rgba(200, 202, 203, 1)"></path><path d="M822.5 542.5L717.5 647.5L717.5 682.5" stroke-width="5.83" stroke="rgba(200, 202, 203, 1)"></path><path d="M813.75 542.5 a8.75 8.75 0 1 0 17.5 0 a8.75 8.75 0 1 0 -17.5 0zM708.75 682.5 a8.75 8.75 0 1 0 17.5 0 a8.75 8.75 0 1 0 -17.5 0z" fill="rgba(200, 202, 203, 1)"></path><path d="M367.5 752.5L507.5 752.5L577.5 682.5L612.5 682.5L752.5 822.5L752.5 997.5" stroke-width="5.83" stroke="rgba(200, 202, 203, 1)"></path><path d="M358.75 752.5 a8.75 8.75 0 1 0 17.5 0 a8.75 8.75 0 1 0 -17.5 0zM743.75 997.5 a8.75 8.75 0 1 0 17.5 0 a8.75 8.75 0 1 0 -17.5 0z" fill="rgba(200, 202, 203, 1)"></path><path d="M1172.5 647.5L1382.5 437.5L1417.5 437.5L1557.5 577.5L1557.5 857.5" stroke-width="5.83" stroke="rgba(200, 202, 203, 1)"></path><path d="M1163.75 647.5 a8.75 8.75 0 1 0 17.5 0 a8.75 8.75 0 1 0 -17.5 0zM1548.75 857.5 a8.75 8.75 0 1 0 17.5 0 a8.75 8.75 0 1 0 -17.5 0z" fill="rgba(200, 202, 203, 1)"></path><path d="M822.5 262.5L892.5 192.5L927.5 192.5L997.5 262.5" stroke-width="5.83" stroke="rgba(200, 202, 203, 1)"></path><path d="M813.75 262.5 a8.75 8.75 0 1 0 17.5 0 a8.75 8.75 0 1 0 -17.5 0zM988.75 262.5 a8.75 8.75 0 1 0 17.5 0 a8.75 8.75 0 1 0 -17.5 0z" fill="rgba(200, 202, 203, 1)"></path><path d="M157.5 52.5L87.5 122.5L17.5 122.5" stroke-width="5.83" stroke="rgba(200, 202, 203, 1)"></path><path d="M148.75 52.5 a8.75 8.75 0 1 0 17.5 0 a8.75 8.75 0 1 0 -17.5 0zM8.75 122.5 a8.75 8.75 0 1 0 17.5 0 a8.75 8.75 0 1 0 -17.5 0z" fill="rgba(200, 202, 203, 1)"></path><path d="M1347.5 507.5L1347.5 542.5L1522.5 717.5L1522.5 787.5L1347.5 962.5" stroke-width="5.83" stroke="rgba(200, 202, 203, 1)"></path><path d="M1338.75 507.5 a8.75 8.75 0 1 0 17.5 0 a8.75 8.75 0 1 0 -17.5 0zM1338.75 962.5 a8.75 8.75 0 1 0 17.5 0 a8.75 8.75 0 1 0 -17.5 0z" fill="rgba(200, 202, 203, 1)"></path><path d="M1872.5 87.5L1417.5 87.5L1347.5 157.5L1312.5 157.5" stroke-width="5.83" stroke="rgba(200, 202, 203, 1)"></path><path d="M1863.75 87.5 a8.75 8.75 0 1 0 17.5 0 a8.75 8.75 0 1 0 -17.5 0zM1303.75 157.5 a8.75 8.75 0 1 0 17.5 0 a8.75 8.75 0 1 0 -17.5 0z" fill="rgba(200, 202, 203, 1)"></path><path d="M472.5 647.5L402.5 647.5L332.5 717.5L192.5 717.5L17.5 892.5L17.5 962.5" stroke-width="5.83" stroke="rgba(200, 202, 203, 1)"></path><path d="M463.75 647.5 a8.75 8.75 0 1 0 17.5 0 a8.75 8.75 0 1 0 -17.5 0zM8.75 962.5 a8.75 8.75 0 1 0 17.5 0 a8.75 8.75 0 1 0 -17.5 0z" fill="rgba(200, 202, 203, 1)"></path><path d="M122.5 542.5L122.5 717.5L17.5 822.5L17.5 857.5" stroke-width="5.83" stroke="rgba(200, 202, 203, 1)"></path><path d="M113.75 542.5 a8.75 8.75 0 1 0 17.5 0 a8.75 8.75 0 1 0 -17.5 0zM8.75 857.5 a8.75 8.75 0 1 0 17.5 0 a8.75 8.75 0 1 0 -17.5 0z" fill="rgba(200, 202, 203, 1)"></path><path d="M647.5 927.5L717.5 927.5" stroke-width="5.83" stroke="rgba(200, 202, 203, 1)"></path><path d="M638.75 927.5 a8.75 8.75 0 1 0 17.5 0 a8.75 8.75 0 1 0 -17.5 0zM708.75 927.5 a8.75 8.75 0 1 0 17.5 0 a8.75 8.75 0 1 0 -17.5 0z" fill="rgba(200, 202, 203, 1)"></path><path d="M1802.5 297.5L1697.5 402.5" stroke-width="5.83" stroke="rgba(200, 202, 203, 1)"></path><path d="M1793.75 297.5 a8.75 8.75 0 1 0 17.5 0 a8.75 8.75 0 1 0 -17.5 0zM1688.75 402.5 a8.75 8.75 0 1 0 17.5 0 a8.75 8.75 0 1 0 -17.5 0z" fill="rgba(200, 202, 203, 1)"></path><path d="M262.5 542.5L157.5 647.5L157.5 682.5" stroke-width="5.83" stroke="rgba(200, 202, 203, 1)"></path><path d="M253.75 542.5 a8.75 8.75 0 1 0 17.5 0 a8.75 8.75 0 1 0 -17.5 0zM148.75 682.5 a8.75 8.75 0 1 0 17.5 0 a8.75 8.75 0 1 0 -17.5 0z" fill="rgba(200, 202, 203, 1)"></path><path d="M1102.5 157.5L1102.5 87.5" stroke-width="5.83" stroke="rgba(200, 202, 203, 1)"></path><path d="M1093.75 157.5 a8.75 8.75 0 1 0 17.5 0 a8.75 8.75 0 1 0 -17.5 0zM1093.75 87.5 a8.75 8.75 0 1 0 17.5 0 a8.75 8.75 0 1 0 -17.5 0z" fill="rgba(200, 202, 203, 1)"></path><path d="M2502.5 17.5L2502.5 297.5L2467.5 332.5" stroke-width="5.83" stroke="rgba(200, 202, 203, 1)"></path><path d="M2493.75 17.5 a8.75 8.75 0 1 0 17.5 0 a8.75 8.75 0 1 0 -17.5 0zM2458.75 332.5 a8.75 8.75 0 1 0 17.5 0 a8.75 8.75 0 1 0 -17.5 0z" fill="rgba(200, 202, 203, 1)"></path><path d="M262.5 472.5L297.5 437.5L297.5 402.5L262.5 367.5L17.5 367.5" stroke-width="5.83" stroke="rgba(200, 202, 203, 1)"></path><path d="M253.75 472.5 a8.75 8.75 0 1 0 17.5 0 a8.75 8.75 0 1 0 -17.5 0zM8.75 367.5 a8.75 8.75 0 1 0 17.5 0 a8.75 8.75 0 1 0 -17.5 0z" fill="rgba(200, 202, 203, 1)"></path><path d="M2117.5 227.5L2362.5 472.5" stroke-width="5.83" stroke="rgba(200, 202, 203, 1)"></path><path d="M2108.75 227.5 a8.75 8.75 0 1 0 17.5 0 a8.75 8.75 0 1 0 -17.5 0zM2353.75 472.5 a8.75 8.75 0 1 0 17.5 0 a8.75 8.75 0 1 0 -17.5 0z" fill="rgba(200, 202, 203, 1)"></path><path d="M1627.5 122.5L1662.5 157.5L1662.5 332.5L1697.5 367.5" stroke-width="5.83" stroke="rgba(200, 202, 203, 1)"></path><path d="M1618.75 122.5 a8.75 8.75 0 1 0 17.5 0 a8.75 8.75 0 1 0 -17.5 0zM1688.75 367.5 a8.75 8.75 0 1 0 17.5 0 a8.75 8.75 0 1 0 -17.5 0z" fill="rgba(200, 202, 203, 1)"></path><path d="M472.5 87.5L472.5 17.5" stroke-width="5.83" stroke="rgba(200, 202, 203, 1)"></path><path d="M463.75 87.5 a8.75 8.75 0 1 0 17.5 0 a8.75 8.75 0 1 0 -17.5 0zM463.75 17.5 a8.75 8.75 0 1 0 17.5 0 a8.75 8.75 0 1 0 -17.5 0z" fill="rgba(200, 202, 203, 1)"></path><path d="M437.5 227.5L402.5 227.5L297.5 332.5" stroke-width="5.83" stroke="rgba(200, 202, 203, 1)"></path><path d="M428.75 227.5 a8.75 8.75 0 1 0 17.5 0 a8.75 8.75 0 1 0 -17.5 0zM288.75 332.5 a8.75 8.75 0 1 0 17.5 0 a8.75 8.75 0 1 0 -17.5 0z" fill="rgba(200, 202, 203, 1)"></path><path d="M2467.5 227.5L2467.5 297.5" stroke-width="5.83" stroke="rgba(200, 202, 203, 1)"></path><path d="M2458.75 227.5 a8.75 8.75 0 1 0 17.5 0 a8.75 8.75 0 1 0 -17.5 0zM2458.75 297.5 a8.75 8.75 0 1 0 17.5 0 a8.75 8.75 0 1 0 -17.5 0z" fill="rgba(200, 202, 203, 1)"></path><path d="M332.5 332.5L402.5 262.5L507.5 262.5L542.5 297.5L542.5 437.5" stroke-width="5.83" stroke="rgba(200, 202, 203, 1)"></path><path d="M323.75 332.5 a8.75 8.75 0 1 0 17.5 0 a8.75 8.75 0 1 0 -17.5 0zM533.75 437.5 a8.75 8.75 0 1 0 17.5 0 a8.75 8.75 0 1 0 -17.5 0z" fill="rgba(200, 202, 203, 1)"></path><path d="M1417.5 682.5L1417.5 647.5L1312.5 542.5" stroke-width="5.83" stroke="rgba(200, 202, 203, 1)"></path><path d="M1408.75 682.5 a8.75 8.75 0 1 0 17.5 0 a8.75 8.75 0 1 0 -17.5 0zM1303.75 542.5 a8.75 8.75 0 1 0 17.5 0 a8.75 8.75 0 1 0 -17.5 0z" fill="rgba(200, 202, 203, 1)"></path><path d="M1417.5 367.5L1662.5 612.5L1662.5 892.5L1767.5 997.5L1802.5 997.5" stroke-width="5.83" stroke="rgba(200, 202, 203, 1)"></path><path d="M1408.75 367.5 a8.75 8.75 0 1 0 17.5 0 a8.75 8.75 0 1 0 -17.5 0zM1793.75 997.5 a8.75 8.75 0 1 0 17.5 0 a8.75 8.75 0 1 0 -17.5 0z" fill="rgba(200, 202, 203, 1)"></path><path d="M2012.5 472.5L2012.5 437.5L2152.5 297.5" stroke-width="5.83" stroke="rgba(200, 202, 203, 1)"></path><path d="M2003.75 472.5 a8.75 8.75 0 1 0 17.5 0 a8.75 8.75 0 1 0 -17.5 0zM2143.75 297.5 a8.75 8.75 0 1 0 17.5 0 a8.75 8.75 0 1 0 -17.5 0z" fill="rgba(200, 202, 203, 1)"></path><path d="M1347.5 297.5L1382.5 332.5L1557.5 332.5L2012.5 787.5" stroke-width="5.83" stroke="rgba(200, 202, 203, 1)"></path><path d="M1338.75 297.5 a8.75 8.75 0 1 0 17.5 0 a8.75 8.75 0 1 0 -17.5 0zM2003.75 787.5 a8.75 8.75 0 1 0 17.5 0 a8.75 8.75 0 1 0 -17.5 0z" fill="rgba(200, 202, 203, 1)"></path><path d="M2292.5 367.5L2362.5 297.5" stroke-width="5.83" stroke="rgba(200, 202, 203, 1)"></path><path d="M2283.75 367.5 a8.75 8.75 0 1 0 17.5 0 a8.75 8.75 0 1 0 -17.5 0zM2353.75 297.5 a8.75 8.75 0 1 0 17.5 0 a8.75 8.75 0 1 0 -17.5 0z" fill="rgba(200, 202, 203, 1)"></path><path d="M1802.5 192.5L1942.5 192.5L2117.5 17.5L2187.5 17.5L2432.5 262.5L2432.5 297.5" stroke-width="5.83" stroke="rgba(200, 202, 203, 1)"></path><path d="M1793.75 192.5 a8.75 8.75 0 1 0 17.5 0 a8.75 8.75 0 1 0 -17.5 0zM2423.75 297.5 a8.75 8.75 0 1 0 17.5 0 a8.75 8.75 0 1 0 -17.5 0z" fill="rgba(200, 202, 203, 1)"></path><path d="M787.5 17.5L542.5 262.5" stroke-width="5.83" stroke="rgba(200, 202, 203, 1)"></path><path d="M778.75 17.5 a8.75 8.75 0 1 0 17.5 0 a8.75 8.75 0 1 0 -17.5 0zM533.75 262.5 a8.75 8.75 0 1 0 17.5 0 a8.75 8.75 0 1 0 -17.5 0z" fill="rgba(200, 202, 203, 1)"></path><path d="M2152.5 542.5L1942.5 542.5L1872.5 612.5" stroke-width="5.83" stroke="rgba(200, 202, 203, 1)"></path><path d="M2143.75 542.5 a8.75 8.75 0 1 0 17.5 0 a8.75 8.75 0 1 0 -17.5 0zM1863.75 612.5 a8.75 8.75 0 1 0 17.5 0 a8.75 8.75 0 1 0 -17.5 0z" fill="rgba(200, 202, 203, 1)"></path><path d="M1907.5 87.5L1942.5 87.5L1977.5 52.5L2012.5 52.5L2047.5 17.5L2082.5 17.5" stroke-width="5.83" stroke="rgba(200, 202, 203, 1)"></path><path d="M1898.75 87.5 a8.75 8.75 0 1 0 17.5 0 a8.75 8.75 0 1 0 -17.5 0zM2073.75 17.5 a8.75 8.75 0 1 0 17.5 0 a8.75 8.75 0 1 0 -17.5 0z" fill="rgba(200, 202, 203, 1)"></path><path d="M2047.5 612.5L2222.5 612.5L2257.5 577.5L2257.5 542.5L2117.5 402.5L2082.5 402.5L2047.5 437.5L2047.5 507.5" stroke-width="5.83" stroke="rgba(200, 202, 203, 1)"></path><path d="M2038.75 612.5 a8.75 8.75 0 1 0 17.5 0 a8.75 8.75 0 1 0 -17.5 0zM2038.75 507.5 a8.75 8.75 0 1 0 17.5 0 a8.75 8.75 0 1 0 -17.5 0z" fill="rgba(200, 202, 203, 1)"></path><path d="M367.5 192.5L367.5 227.5L297.5 297.5L262.5 297.5L192.5 227.5L192.5 192.5L262.5 122.5L437.5 122.5L542.5 227.5" stroke-width="5.83" stroke="rgba(200, 202, 203, 1)"></path><path d="M358.75 192.5 a8.75 8.75 0 1 0 17.5 0 a8.75 8.75 0 1 0 -17.5 0zM533.75 227.5 a8.75 8.75 0 1 0 17.5 0 a8.75 8.75 0 1 0 -17.5 0z" fill="rgba(200, 202, 203, 1)"></path><path d="M2222.5 157.5L2012.5 157.5L1732.5 437.5" stroke-width="5.83" stroke="rgba(200, 202, 203, 1)"></path><path d="M2213.75 157.5 a8.75 8.75 0 1 0 17.5 0 a8.75 8.75 0 1 0 -17.5 0zM1723.75 437.5 a8.75 8.75 0 1 0 17.5 0 a8.75 8.75 0 1 0 -17.5 0z" fill="rgba(200, 202, 203, 1)"></path><path d="M752.5 647.5L857.5 647.5L1102.5 402.5L1102.5 332.5" stroke-width="5.83" stroke="rgba(200, 202, 203, 1)"></path><path d="M743.75 647.5 a8.75 8.75 0 1 0 17.5 0 a8.75 8.75 0 1 0 -17.5 0zM1093.75 332.5 a8.75 8.75 0 1 0 17.5 0 a8.75 8.75 0 1 0 -17.5 0z" fill="rgba(200, 202, 203, 1)"></path><path d="M1487.5 262.5L1452.5 297.5L1382.5 297.5L1312.5 227.5" stroke-width="5.83" stroke="rgba(200, 202, 203, 1)"></path><path d="M1478.75 262.5 a8.75 8.75 0 1 0 17.5 0 a8.75 8.75 0 1 0 -17.5 0zM1303.75 227.5 a8.75 8.75 0 1 0 17.5 0 a8.75 8.75 0 1 0 -17.5 0z" fill="rgba(200, 202, 203, 1)"></path><path d="M262.5 857.5L297.5 822.5L297.5 752.5" stroke-width="5.83" stroke="rgba(200, 202, 203, 1)"></path><path d="M253.75 857.5 a8.75 8.75 0 1 0 17.5 0 a8.75 8.75 0 1 0 -17.5 0zM288.75 752.5 a8.75 8.75 0 1 0 17.5 0 a8.75 8.75 0 1 0 -17.5 0z" fill="rgba(200, 202, 203, 1)"></path><path d="M1767.5 192.5L1837.5 122.5L1977.5 122.5L2012.5 87.5" stroke-width="5.83" stroke="rgba(200, 202, 203, 1)"></path><path d="M1758.75 192.5 a8.75 8.75 0 1 0 17.5 0 a8.75 8.75 0 1 0 -17.5 0zM2003.75 87.5 a8.75 8.75 0 1 0 17.5 0 a8.75 8.75 0 1 0 -17.5 0z" fill="rgba(200, 202, 203, 1)"></path><path d="M1172.5 157.5L1242.5 87.5" stroke-width="5.83" stroke="rgba(200, 202, 203, 1)"></path><path d="M1163.75 157.5 a8.75 8.75 0 1 0 17.5 0 a8.75 8.75 0 1 0 -17.5 0zM1233.75 87.5 a8.75 8.75 0 1 0 17.5 0 a8.75 8.75 0 1 0 -17.5 0z" fill="rgba(200, 202, 203, 1)"></path><path d="M647.5 892.5L717.5 892.5" stroke-width="5.83" stroke="rgba(200, 202, 203, 1)"></path><path d="M638.75 892.5 a8.75 8.75 0 1 0 17.5 0 a8.75 8.75 0 1 0 -17.5 0zM708.75 892.5 a8.75 8.75 0 1 0 17.5 0 a8.75 8.75 0 1 0 -17.5 0z" fill="rgba(200, 202, 203, 1)"></path><path d="M1102.5 927.5L1067.5 962.5L997.5 962.5L892.5 857.5L822.5 857.5" stroke-width="5.83" stroke="rgba(200, 202, 203, 1)"></path><path d="M1093.75 927.5 a8.75 8.75 0 1 0 17.5 0 a8.75 8.75 0 1 0 -17.5 0zM813.75 857.5 a8.75 8.75 0 1 0 17.5 0 a8.75 8.75 0 1 0 -17.5 0z" fill="rgba(200, 202, 203, 1)"></path><path d="M1767.5 717.5L1907.5 717.5L1977.5 787.5L1977.5 927.5L2012.5 962.5L2047.5 962.5L2152.5 857.5L2152.5 752.5L2187.5 717.5" stroke-width="5.83" stroke="rgba(200, 202, 203, 1)"></path><path d="M1758.75 717.5 a8.75 8.75 0 1 0 17.5 0 a8.75 8.75 0 1 0 -17.5 0zM2178.75 717.5 a8.75 8.75 0 1 0 17.5 0 a8.75 8.75 0 1 0 -17.5 0z" fill="rgba(200, 202, 203, 1)"></path><path d="M2432.5 612.5L2432.5 472.5" stroke-width="5.83" stroke="rgba(200, 202, 203, 1)"></path><path d="M2423.75 612.5 a8.75 8.75 0 1 0 17.5 0 a8.75 8.75 0 1 0 -17.5 0zM2423.75 472.5 a8.75 8.75 0 1 0 17.5 0 a8.75 8.75 0 1 0 -17.5 0z" fill="rgba(200, 202, 203, 1)"></path><path d="M1557.5 262.5L1417.5 122.5" stroke-width="5.83" stroke="rgba(200, 202, 203, 1)"></path><path d="M1548.75 262.5 a8.75 8.75 0 1 0 17.5 0 a8.75 8.75 0 1 0 -17.5 0zM1408.75 122.5 a8.75 8.75 0 1 0 17.5 0 a8.75 8.75 0 1 0 -17.5 0z" fill="rgba(200, 202, 203, 1)"></path><path d="M1942.5 857.5L1942.5 787.5L1907.5 752.5L1767.5 752.5L1697.5 822.5L1697.5 892.5L1767.5 962.5L1907.5 962.5L1942.5 997.5" stroke-width="5.83" stroke="rgba(200, 202, 203, 1)"></path><path d="M1933.75 857.5 a8.75 8.75 0 1 0 17.5 0 a8.75 8.75 0 1 0 -17.5 0zM1933.75 997.5 a8.75 8.75 0 1 0 17.5 0 a8.75 8.75 0 1 0 -17.5 0z" fill="rgba(200, 202, 203, 1)"></path><path d="M2292.5 227.5L2257.5 192.5L2187.5 192.5L2152.5 227.5" stroke-width="5.83" stroke="rgba(200, 202, 203, 1)"></path><path d="M2283.75 227.5 a8.75 8.75 0 1 0 17.5 0 a8.75 8.75 0 1 0 -17.5 0zM2143.75 227.5 a8.75 8.75 0 1 0 17.5 0 a8.75 8.75 0 1 0 -17.5 0z" fill="rgba(200, 202, 203, 1)"></path><path d="M2362.5 52.5L2362.5 157.5" stroke-width="5.83" stroke="rgba(200, 202, 203, 1)"></path><path d="M2353.75 52.5 a8.75 8.75 0 1 0 17.5 0 a8.75 8.75 0 1 0 -17.5 0zM2353.75 157.5 a8.75 8.75 0 1 0 17.5 0 a8.75 8.75 0 1 0 -17.5 0z" fill="rgba(200, 202, 203, 1)"></path><path d="M717.5 402.5L787.5 402.5L857.5 332.5L857.5 262.5L892.5 227.5L927.5 227.5L962.5 262.5" stroke-width="5.83" stroke="rgba(200, 202, 203, 1)"></path><path d="M708.75 402.5 a8.75 8.75 0 1 0 17.5 0 a8.75 8.75 0 1 0 -17.5 0zM953.75 262.5 a8.75 8.75 0 1 0 17.5 0 a8.75 8.75 0 1 0 -17.5 0z" fill="rgba(200, 202, 203, 1)"></path><path d="M682.5 332.5L717.5 367.5L787.5 367.5L822.5 332.5L822.5 297.5L717.5 192.5L682.5 192.5L612.5 262.5L612.5 437.5" stroke-width="5.83" stroke="rgba(200, 202, 203, 1)"></path><path d="M673.75 332.5 a8.75 8.75 0 1 0 17.5 0 a8.75 8.75 0 1 0 -17.5 0zM603.75 437.5 a8.75 8.75 0 1 0 17.5 0 a8.75 8.75 0 1 0 -17.5 0z" fill="rgba(200, 202, 203, 1)"></path><path d="M87.5 612.5L17.5 682.5L17.5 787.5" stroke-width="5.83" stroke="rgba(200, 202, 203, 1)"></path><path d="M78.75 612.5 a8.75 8.75 0 1 0 17.5 0 a8.75 8.75 0 1 0 -17.5 0zM8.75 787.5 a8.75 8.75 0 1 0 17.5 0 a8.75 8.75 0 1 0 -17.5 0z" fill="rgba(200, 202, 203, 1)"></path><path d="M1522.5 962.5L1522.5 927.5L1627.5 822.5L1627.5 612.5" stroke-width="5.83" stroke="rgba(200, 202, 203, 1)"></path><path d="M1513.75 962.5 a8.75 8.75 0 1 0 17.5 0 a8.75 8.75 0 1 0 -17.5 0zM1618.75 612.5 a8.75 8.75 0 1 0 17.5 0 a8.75 8.75 0 1 0 -17.5 0z" fill="rgba(200, 202, 203, 1)"></path><path d="M472.5 682.5L437.5 717.5L367.5 717.5" stroke-width="5.83" stroke="rgba(200, 202, 203, 1)"></path><path d="M463.75 682.5 a8.75 8.75 0 1 0 17.5 0 a8.75 8.75 0 1 0 -17.5 0zM358.75 717.5 a8.75 8.75 0 1 0 17.5 0 a8.75 8.75 0 1 0 -17.5 0z" fill="rgba(200, 202, 203, 1)"></path><path d="M1907.5 402.5L1907.5 297.5L2012.5 192.5L2152.5 192.5" stroke-width="5.83" stroke="rgba(200, 202, 203, 1)"></path><path d="M1898.75 402.5 a8.75 8.75 0 1 0 17.5 0 a8.75 8.75 0 1 0 -17.5 0zM2143.75 192.5 a8.75 8.75 0 1 0 17.5 0 a8.75 8.75 0 1 0 -17.5 0z" fill="rgba(200, 202, 203, 1)"></path><path d="M1872.5 402.5L1802.5 402.5L1767.5 437.5L1767.5 472.5L1872.5 577.5" stroke-width="5.83" stroke="rgba(200, 202, 203, 1)"></path><path d="M1863.75 402.5 a8.75 8.75 0 1 0 17.5 0 a8.75 8.75 0 1 0 -17.5 0zM1863.75 577.5 a8.75 8.75 0 1 0 17.5 0 a8.75 8.75 0 1 0 -17.5 0z" fill="rgba(200, 202, 203, 1)"></path><path d="M192.5 507.5L262.5 437.5L262.5 402.5" stroke-width="5.83" stroke="rgba(200, 202, 203, 1)"></path><path d="M183.75 507.5 a8.75 8.75 0 1 0 17.5 0 a8.75 8.75 0 1 0 -17.5 0zM253.75 402.5 a8.75 8.75 0 1 0 17.5 0 a8.75 8.75 0 1 0 -17.5 0z" fill="rgba(200, 202, 203, 1)"></path><path d="M1662.5 927.5L1627.5 892.5L1627.5 857.5" stroke-width="5.83" stroke="rgba(200, 202, 203, 1)"></path><path d="M1653.75 927.5 a8.75 8.75 0 1 0 17.5 0 a8.75 8.75 0 1 0 -17.5 0zM1618.75 857.5 a8.75 8.75 0 1 0 17.5 0 a8.75 8.75 0 1 0 -17.5 0z" fill="rgba(200, 202, 203, 1)"></path><path d="M717.5 857.5L577.5 717.5" stroke-width="5.83" stroke="rgba(200, 202, 203, 1)"></path><path d="M708.75 857.5 a8.75 8.75 0 1 0 17.5 0 a8.75 8.75 0 1 0 -17.5 0zM568.75 717.5 a8.75 8.75 0 1 0 17.5 0 a8.75 8.75 0 1 0 -17.5 0z" fill="rgba(200, 202, 203, 1)"></path><path d="M87.5 577.5L17.5 647.5" stroke-width="5.83" stroke="rgba(200, 202, 203, 1)"></path><path d="M78.75 577.5 a8.75 8.75 0 1 0 17.5 0 a8.75 8.75 0 1 0 -17.5 0zM8.75 647.5 a8.75 8.75 0 1 0 17.5 0 a8.75 8.75 0 1 0 -17.5 0z" fill="rgba(200, 202, 203, 1)"></path><path d="M262.5 787.5L262.5 822.5L122.5 962.5L52.5 962.5" stroke-width="5.83" stroke="rgba(200, 202, 203, 1)"></path><path d="M253.75 787.5 a8.75 8.75 0 1 0 17.5 0 a8.75 8.75 0 1 0 -17.5 0zM43.75 962.5 a8.75 8.75 0 1 0 17.5 0 a8.75 8.75 0 1 0 -17.5 0z" fill="rgba(200, 202, 203, 1)"></path><path d="M437.5 402.5L437.5 297.5" stroke-width="5.83" stroke="rgba(200, 202, 203, 1)"></path><path d="M428.75 402.5 a8.75 8.75 0 1 0 17.5 0 a8.75 8.75 0 1 0 -17.5 0zM428.75 297.5 a8.75 8.75 0 1 0 17.5 0 a8.75 8.75 0 1 0 -17.5 0z" fill="rgba(200, 202, 203, 1)"></path><path d="M1802.5 52.5L1767.5 17.5L1732.5 17.5L1697.5 52.5L1522.5 52.5L1487.5 17.5L1137.5 17.5" stroke-width="5.83" stroke="rgba(200, 202, 203, 1)"></path><path d="M1793.75 52.5 a8.75 8.75 0 1 0 17.5 0 a8.75 8.75 0 1 0 -17.5 0zM1128.75 17.5 a8.75 8.75 0 1 0 17.5 0 a8.75 8.75 0 1 0 -17.5 0z" fill="rgba(200, 202, 203, 1)"></path><path d="M927.5 367.5L1032.5 367.5L1067.5 332.5" stroke-width="5.83" stroke="rgba(200, 202, 203, 1)"></path><path d="M918.75 367.5 a8.75 8.75 0 1 0 17.5 0 a8.75 8.75 0 1 0 -17.5 0zM1058.75 332.5 a8.75 8.75 0 1 0 17.5 0 a8.75 8.75 0 1 0 -17.5 0z" fill="rgba(200, 202, 203, 1)"></path><path d="M2257.5 437.5L2222.5 437.5L2152.5 367.5L2117.5 367.5" stroke-width="5.83" stroke="rgba(200, 202, 203, 1)"></path><path d="M2248.75 437.5 a8.75 8.75 0 1 0 17.5 0 a8.75 8.75 0 1 0 -17.5 0zM2108.75 367.5 a8.75 8.75 0 1 0 17.5 0 a8.75 8.75 0 1 0 -17.5 0z" fill="rgba(200, 202, 203, 1)"></path><path d="M2257.5 647.5L2397.5 507.5" stroke-width="5.83" stroke="rgba(200, 202, 203, 1)"></path><path d="M2248.75 647.5 a8.75 8.75 0 1 0 17.5 0 a8.75 8.75 0 1 0 -17.5 0zM2388.75 507.5 a8.75 8.75 0 1 0 17.5 0 a8.75 8.75 0 1 0 -17.5 0z" fill="rgba(200, 202, 203, 1)"></path><path d="M857.5 192.5L822.5 227.5L787.5 227.5L717.5 157.5L717.5 122.5L822.5 17.5L1102.5 17.5" stroke-width="5.83" stroke="rgba(200, 202, 203, 1)"></path><path d="M848.75 192.5 a8.75 8.75 0 1 0 17.5 0 a8.75 8.75 0 1 0 -17.5 0zM1093.75 17.5 a8.75 8.75 0 1 0 17.5 0 a8.75 8.75 0 1 0 -17.5 0z" fill="rgba(200, 202, 203, 1)"></path><path d="M1207.5 717.5L1137.5 787.5" stroke-width="5.83" stroke="rgba(200, 202, 203, 1)"></path><path d="M1198.75 717.5 a8.75 8.75 0 1 0 17.5 0 a8.75 8.75 0 1 0 -17.5 0zM1128.75 787.5 a8.75 8.75 0 1 0 17.5 0 a8.75 8.75 0 1 0 -17.5 0z" fill="rgba(200, 202, 203, 1)"></path><path d="M122.5 17.5L52.5 87.5L17.5 87.5" stroke-width="5.83" stroke="rgba(200, 202, 203, 1)"></path><path d="M113.75 17.5 a8.75 8.75 0 1 0 17.5 0 a8.75 8.75 0 1 0 -17.5 0zM8.75 87.5 a8.75 8.75 0 1 0 17.5 0 a8.75 8.75 0 1 0 -17.5 0z" fill="rgba(200, 202, 203, 1)"></path><path d="M1277.5 787.5L1277.5 927.5" stroke-width="5.83" stroke="rgba(200, 202, 203, 1)"></path><path d="M1268.75 787.5 a8.75 8.75 0 1 0 17.5 0 a8.75 8.75 0 1 0 -17.5 0zM1268.75 927.5 a8.75 8.75 0 1 0 17.5 0 a8.75 8.75 0 1 0 -17.5 0z" fill="rgba(200, 202, 203, 1)"></path><path d="M1872.5 927.5L1837.5 892.5L1802.5 892.5L1767.5 927.5" stroke-width="5.83" stroke="rgba(200, 202, 203, 1)"></path><path d="M1863.75 927.5 a8.75 8.75 0 1 0 17.5 0 a8.75 8.75 0 1 0 -17.5 0zM1758.75 927.5 a8.75 8.75 0 1 0 17.5 0 a8.75 8.75 0 1 0 -17.5 0z" fill="rgba(200, 202, 203, 1)"></path><path d="M1907.5 52.5L1942.5 52.5L1977.5 17.5L2012.5 17.5" stroke-width="5.83" stroke="rgba(200, 202, 203, 1)"></path><path d="M1898.75 52.5 a8.75 8.75 0 1 0 17.5 0 a8.75 8.75 0 1 0 -17.5 0zM2003.75 17.5 a8.75 8.75 0 1 0 17.5 0 a8.75 8.75 0 1 0 -17.5 0z" fill="rgba(200, 202, 203, 1)"></path><path d="M507.5 892.5L332.5 892.5L262.5 962.5L227.5 962.5" stroke-width="5.83" stroke="rgba(200, 202, 203, 1)"></path><path d="M498.75 892.5 a8.75 8.75 0 1 0 17.5 0 a8.75 8.75 0 1 0 -17.5 0zM218.75 962.5 a8.75 8.75 0 1 0 17.5 0 a8.75 8.75 0 1 0 -17.5 0z" fill="rgba(200, 202, 203, 1)"></path><path d="M1977.5 402.5L2012.5 402.5L2117.5 297.5L2117.5 262.5L2082.5 227.5L2012.5 227.5L1942.5 297.5L1942.5 507.5L1907.5 542.5L1872.5 542.5L1837.5 507.5" stroke-width="5.83" stroke="rgba(200, 202, 203, 1)"></path><path d="M1968.75 402.5 a8.75 8.75 0 1 0 17.5 0 a8.75 8.75 0 1 0 -17.5 0zM1828.75 507.5 a8.75 8.75 0 1 0 17.5 0 a8.75 8.75 0 1 0 -17.5 0z" fill="rgba(200, 202, 203, 1)"></path><path d="M1837.5 437.5L1907.5 437.5" stroke-width="5.83" stroke="rgba(200, 202, 203, 1)"></path><path d="M1828.75 437.5 a8.75 8.75 0 1 0 17.5 0 a8.75 8.75 0 1 0 -17.5 0zM1898.75 437.5 a8.75 8.75 0 1 0 17.5 0 a8.75 8.75 0 1 0 -17.5 0z" fill="rgba(200, 202, 203, 1)"></path><path d="M1032.5 402.5L1032.5 437.5L857.5 612.5L787.5 612.5" stroke-width="5.83" stroke="rgba(200, 202, 203, 1)"></path><path d="M1023.75 402.5 a8.75 8.75 0 1 0 17.5 0 a8.75 8.75 0 1 0 -17.5 0zM778.75 612.5 a8.75 8.75 0 1 0 17.5 0 a8.75 8.75 0 1 0 -17.5 0z" fill="rgba(200, 202, 203, 1)"></path><path d="M87.5 262.5L87.5 332.5" stroke-width="5.83" stroke="rgba(200, 202, 203, 1)"></path><path d="M78.75 262.5 a8.75 8.75 0 1 0 17.5 0 a8.75 8.75 0 1 0 -17.5 0zM78.75 332.5 a8.75 8.75 0 1 0 17.5 0 a8.75 8.75 0 1 0 -17.5 0z" fill="rgba(200, 202, 203, 1)"></path><path d="M472.5 612.5L542.5 682.5" stroke-width="5.83" stroke="rgba(200, 202, 203, 1)"></path><path d="M463.75 612.5 a8.75 8.75 0 1 0 17.5 0 a8.75 8.75 0 1 0 -17.5 0zM533.75 682.5 a8.75 8.75 0 1 0 17.5 0 a8.75 8.75 0 1 0 -17.5 0z" fill="rgba(200, 202, 203, 1)"></path><path d="M1347.5 752.5L1347.5 822.5L1312.5 857.5L1312.5 927.5" stroke-width="5.83" stroke="rgba(200, 202, 203, 1)"></path><path d="M1338.75 752.5 a8.75 8.75 0 1 0 17.5 0 a8.75 8.75 0 1 0 -17.5 0zM1303.75 927.5 a8.75 8.75 0 1 0 17.5 0 a8.75 8.75 0 1 0 -17.5 0z" fill="rgba(200, 202, 203, 1)"></path><path d="M1242.5 367.5L1207.5 367.5L892.5 682.5" stroke-width="5.83" stroke="rgba(200, 202, 203, 1)"></path><path d="M1233.75 367.5 a8.75 8.75 0 1 0 17.5 0 a8.75 8.75 0 1 0 -17.5 0zM883.75 682.5 a8.75 8.75 0 1 0 17.5 0 a8.75 8.75 0 1 0 -17.5 0z" fill="rgba(200, 202, 203, 1)"></path><path d="M857.5 822.5L857.5 752.5" stroke-width="5.83" stroke="rgba(200, 202, 203, 1)"></path><path d="M848.75 822.5 a8.75 8.75 0 1 0 17.5 0 a8.75 8.75 0 1 0 -17.5 0zM848.75 752.5 a8.75 8.75 0 1 0 17.5 0 a8.75 8.75 0 1 0 -17.5 0z" fill="rgba(200, 202, 203, 1)"></path><path d="M1557.5 157.5L1522.5 122.5L1452.5 122.5" stroke-width="5.83" stroke="rgba(200, 202, 203, 1)"></path><path d="M1548.75 157.5 a8.75 8.75 0 1 0 17.5 0 a8.75 8.75 0 1 0 -17.5 0zM1443.75 122.5 a8.75 8.75 0 1 0 17.5 0 a8.75 8.75 0 1 0 -17.5 0z" fill="rgba(200, 202, 203, 1)"></path><path d="M52.5 752.5L52.5 682.5L87.5 647.5" stroke-width="5.83" stroke="rgba(200, 202, 203, 1)"></path><path d="M43.75 752.5 a8.75 8.75 0 1 0 17.5 0 a8.75 8.75 0 1 0 -17.5 0zM78.75 647.5 a8.75 8.75 0 1 0 17.5 0 a8.75 8.75 0 1 0 -17.5 0z" fill="rgba(200, 202, 203, 1)"></path><path d="M1452.5 227.5L1347.5 227.5" stroke-width="5.83" stroke="rgba(200, 202, 203, 1)"></path><path d="M1443.75 227.5 a8.75 8.75 0 1 0 17.5 0 a8.75 8.75 0 1 0 -17.5 0zM1338.75 227.5 a8.75 8.75 0 1 0 17.5 0 a8.75 8.75 0 1 0 -17.5 0z" fill="rgba(200, 202, 203, 1)"></path><path d="M962.5 822.5L962.5 892.5L997.5 927.5L1067.5 927.5L1137.5 857.5" stroke-width="5.83" stroke="rgba(200, 202, 203, 1)"></path><path d="M953.75 822.5 a8.75 8.75 0 1 0 17.5 0 a8.75 8.75 0 1 0 -17.5 0zM1128.75 857.5 a8.75 8.75 0 1 0 17.5 0 a8.75 8.75 0 1 0 -17.5 0z" fill="rgba(200, 202, 203, 1)"></path><path d="M997.5 682.5L1382.5 682.5L1487.5 787.5" stroke-width="5.83" stroke="rgba(200, 202, 203, 1)"></path><path d="M988.75 682.5 a8.75 8.75 0 1 0 17.5 0 a8.75 8.75 0 1 0 -17.5 0zM1478.75 787.5 a8.75 8.75 0 1 0 17.5 0 a8.75 8.75 0 1 0 -17.5 0z" fill="rgba(200, 202, 203, 1)"></path><path d="M1662.5 577.5L1452.5 367.5" stroke-width="5.83" stroke="rgba(200, 202, 203, 1)"></path><path d="M1653.75 577.5 a8.75 8.75 0 1 0 17.5 0 a8.75 8.75 0 1 0 -17.5 0zM1443.75 367.5 a8.75 8.75 0 1 0 17.5 0 a8.75 8.75 0 1 0 -17.5 0z" fill="rgba(200, 202, 203, 1)"></path><path d="M1137.5 227.5L1242.5 122.5" stroke-width="5.83" stroke="rgba(200, 202, 203, 1)"></path><path d="M1128.75 227.5 a8.75 8.75 0 1 0 17.5 0 a8.75 8.75 0 1 0 -17.5 0zM1233.75 122.5 a8.75 8.75 0 1 0 17.5 0 a8.75 8.75 0 1 0 -17.5 0z" fill="rgba(200, 202, 203, 1)"></path><path d="M1907.5 647.5L2047.5 787.5" stroke-width="5.83" stroke="rgba(200, 202, 203, 1)"></path><path d="M1898.75 647.5 a8.75 8.75 0 1 0 17.5 0 a8.75 8.75 0 1 0 -17.5 0zM2038.75 787.5 a8.75 8.75 0 1 0 17.5 0 a8.75 8.75 0 1 0 -17.5 0z" fill="rgba(200, 202, 203, 1)"></path><path d="M17.5 612.5L227.5 402.5" stroke-width="5.83" stroke="rgba(200, 202, 203, 1)"></path><path d="M8.75 612.5 a8.75 8.75 0 1 0 17.5 0 a8.75 8.75 0 1 0 -17.5 0zM218.75 402.5 a8.75 8.75 0 1 0 17.5 0 a8.75 8.75 0 1 0 -17.5 0z" fill="rgba(200, 202, 203, 1)"></path><path d="M1382.5 542.5L1522.5 682.5" stroke-width="5.83" stroke="rgba(200, 202, 203, 1)"></path><path d="M1373.75 542.5 a8.75 8.75 0 1 0 17.5 0 a8.75 8.75 0 1 0 -17.5 0zM1513.75 682.5 a8.75 8.75 0 1 0 17.5 0 a8.75 8.75 0 1 0 -17.5 0z" fill="rgba(200, 202, 203, 1)"></path><path d="M822.5 157.5L752.5 157.5" stroke-width="5.83" stroke="rgba(200, 202, 203, 1)"></path><path d="M813.75 157.5 a8.75 8.75 0 1 0 17.5 0 a8.75 8.75 0 1 0 -17.5 0zM743.75 157.5 a8.75 8.75 0 1 0 17.5 0 a8.75 8.75 0 1 0 -17.5 0z" fill="rgba(200, 202, 203, 1)"></path><path d="M2187.5 647.5L2082.5 752.5L2047.5 752.5L1907.5 612.5" stroke-width="5.83" stroke="rgba(200, 202, 203, 1)"></path><path d="M2178.75 647.5 a8.75 8.75 0 1 0 17.5 0 a8.75 8.75 0 1 0 -17.5 0zM1898.75 612.5 a8.75 8.75 0 1 0 17.5 0 a8.75 8.75 0 1 0 -17.5 0z" fill="rgba(200, 202, 203, 1)"></path><path d="M577.5 997.5L577.5 752.5" stroke-width="5.83" stroke="rgba(200, 202, 203, 1)"></path><path d="M568.75 997.5 a8.75 8.75 0 1 0 17.5 0 a8.75 8.75 0 1 0 -17.5 0zM568.75 752.5 a8.75 8.75 0 1 0 17.5 0 a8.75 8.75 0 1 0 -17.5 0z" fill="rgba(200, 202, 203, 1)"></path><path d="M2327.5 87.5L2257.5 17.5L2222.5 17.5" stroke-width="5.83" stroke="rgba(200, 202, 203, 1)"></path><path d="M2318.75 87.5 a8.75 8.75 0 1 0 17.5 0 a8.75 8.75 0 1 0 -17.5 0zM2213.75 17.5 a8.75 8.75 0 1 0 17.5 0 a8.75 8.75 0 1 0 -17.5 0z" fill="rgba(200, 202, 203, 1)"></path><path d="M2082.5 892.5L2082.5 822.5L2117.5 787.5" stroke-width="5.83" stroke="rgba(200, 202, 203, 1)"></path><path d="M2073.75 892.5 a8.75 8.75 0 1 0 17.5 0 a8.75 8.75 0 1 0 -17.5 0zM2108.75 787.5 a8.75 8.75 0 1 0 17.5 0 a8.75 8.75 0 1 0 -17.5 0z" fill="rgba(200, 202, 203, 1)"></path><path d="M367.5 927.5L332.5 962.5L297.5 962.5" stroke-width="5.83" stroke="rgba(200, 202, 203, 1)"></path><path d="M358.75 927.5 a8.75 8.75 0 1 0 17.5 0 a8.75 8.75 0 1 0 -17.5 0zM288.75 962.5 a8.75 8.75 0 1 0 17.5 0 a8.75 8.75 0 1 0 -17.5 0z" fill="rgba(200, 202, 203, 1)"></path><path d="M752.5 332.5L717.5 332.5L647.5 262.5" stroke-width="5.83" stroke="rgba(200, 202, 203, 1)"></path><path d="M743.75 332.5 a8.75 8.75 0 1 0 17.5 0 a8.75 8.75 0 1 0 -17.5 0zM638.75 262.5 a8.75 8.75 0 1 0 17.5 0 a8.75 8.75 0 1 0 -17.5 0z" fill="rgba(200, 202, 203, 1)"></path><path d="M2222.5 962.5L2222.5 717.5" stroke-width="5.83" stroke="rgba(200, 202, 203, 1)"></path><path d="M2213.75 962.5 a8.75 8.75 0 1 0 17.5 0 a8.75 8.75 0 1 0 -17.5 0zM2213.75 717.5 a8.75 8.75 0 1 0 17.5 0 a8.75 8.75 0 1 0 -17.5 0z" fill="rgba(200, 202, 203, 1)"></path><path d="M1312.5 332.5L1382.5 402.5" stroke-width="5.83" stroke="rgba(200, 202, 203, 1)"></path><path d="M1303.75 332.5 a8.75 8.75 0 1 0 17.5 0 a8.75 8.75 0 1 0 -17.5 0zM1373.75 402.5 a8.75 8.75 0 1 0 17.5 0 a8.75 8.75 0 1 0 -17.5 0z" fill="rgba(200, 202, 203, 1)"></path><path d="M1522.5 612.5L1522.5 577.5L1452.5 507.5L1417.5 507.5" stroke-width="5.83" stroke="rgba(200, 202, 203, 1)"></path><path d="M1513.75 612.5 a8.75 8.75 0 1 0 17.5 0 a8.75 8.75 0 1 0 -17.5 0zM1408.75 507.5 a8.75 8.75 0 1 0 17.5 0 a8.75 8.75 0 1 0 -17.5 0z" fill="rgba(200, 202, 203, 1)"></path><path d="M857.5 997.5L857.5 892.5" stroke-width="5.83" stroke="rgba(200, 202, 203, 1)"></path><path d="M848.75 997.5 a8.75 8.75 0 1 0 17.5 0 a8.75 8.75 0 1 0 -17.5 0zM848.75 892.5 a8.75 8.75 0 1 0 17.5 0 a8.75 8.75 0 1 0 -17.5 0z" fill="rgba(200, 202, 203, 1)"></path><path d="M192.5 402.5L17.5 577.5" stroke-width="5.83" stroke="rgba(200, 202, 203, 1)"></path><path d="M183.75 402.5 a8.75 8.75 0 1 0 17.5 0 a8.75 8.75 0 1 0 -17.5 0zM8.75 577.5 a8.75 8.75 0 1 0 17.5 0 a8.75 8.75 0 1 0 -17.5 0z" fill="rgba(200, 202, 203, 1)"></path><path d="M997.5 612.5L1207.5 402.5L1347.5 402.5" stroke-width="5.83" stroke="rgba(200, 202, 203, 1)"></path><path d="M988.75 612.5 a8.75 8.75 0 1 0 17.5 0 a8.75 8.75 0 1 0 -17.5 0zM1338.75 402.5 a8.75 8.75 0 1 0 17.5 0 a8.75 8.75 0 1 0 -17.5 0z" fill="rgba(200, 202, 203, 1)"></path><path d="M892.5 997.5L892.5 892.5" stroke-width="5.83" stroke="rgba(200, 202, 203, 1)"></path><path d="M883.75 997.5 a8.75 8.75 0 1 0 17.5 0 a8.75 8.75 0 1 0 -17.5 0zM883.75 892.5 a8.75 8.75 0 1 0 17.5 0 a8.75 8.75 0 1 0 -17.5 0z" fill="rgba(200, 202, 203, 1)"></path><path d="M682.5 577.5L752.5 577.5L822.5 507.5L857.5 507.5L962.5 402.5L997.5 402.5" stroke-width="5.83" stroke="rgba(200, 202, 203, 1)"></path><path d="M673.75 577.5 a8.75 8.75 0 1 0 17.5 0 a8.75 8.75 0 1 0 -17.5 0zM988.75 402.5 a8.75 8.75 0 1 0 17.5 0 a8.75 8.75 0 1 0 -17.5 0z" fill="rgba(200, 202, 203, 1)"></path><path d="M2432.5 752.5L2432.5 647.5L2362.5 577.5" stroke-width="5.83" stroke="rgba(200, 202, 203, 1)"></path><path d="M2423.75 752.5 a8.75 8.75 0 1 0 17.5 0 a8.75 8.75 0 1 0 -17.5 0zM2353.75 577.5 a8.75 8.75 0 1 0 17.5 0 a8.75 8.75 0 1 0 -17.5 0z" fill="rgba(200, 202, 203, 1)"></path><path d="M2082.5 577.5L2222.5 577.5" stroke-width="5.83" stroke="rgba(200, 202, 203, 1)"></path><path d="M2073.75 577.5 a8.75 8.75 0 1 0 17.5 0 a8.75 8.75 0 1 0 -17.5 0zM2213.75 577.5 a8.75 8.75 0 1 0 17.5 0 a8.75 8.75 0 1 0 -17.5 0z" fill="rgba(200, 202, 203, 1)"></path><path d="M507.5 367.5L437.5 437.5L402.5 437.5L367.5 402.5L367.5 332.5L402.5 297.5" stroke-width="5.83" stroke="rgba(200, 202, 203, 1)"></path><path d="M498.75 367.5 a8.75 8.75 0 1 0 17.5 0 a8.75 8.75 0 1 0 -17.5 0zM393.75 297.5 a8.75 8.75 0 1 0 17.5 0 a8.75 8.75 0 1 0 -17.5 0z" fill="rgba(200, 202, 203, 1)"></path><path d="M507.5 87.5L542.5 122.5L542.5 192.5" stroke-width="5.83" stroke="rgba(200, 202, 203, 1)"></path><path d="M498.75 87.5 a8.75 8.75 0 1 0 17.5 0 a8.75 8.75 0 1 0 -17.5 0zM533.75 192.5 a8.75 8.75 0 1 0 17.5 0 a8.75 8.75 0 1 0 -17.5 0z" fill="rgba(200, 202, 203, 1)"></path><path d="M997.5 752.5L1032.5 752.5L1102.5 822.5L1102.5 857.5L1067.5 892.5L997.5 892.5" stroke-width="5.83" stroke="rgba(200, 202, 203, 1)"></path><path d="M988.75 752.5 a8.75 8.75 0 1 0 17.5 0 a8.75 8.75 0 1 0 -17.5 0zM988.75 892.5 a8.75 8.75 0 1 0 17.5 0 a8.75 8.75 0 1 0 -17.5 0z" fill="rgba(200, 202, 203, 1)"></path><path d="M507.5 962.5L507.5 927.5L542.5 892.5L542.5 752.5" stroke-width="5.83" stroke="rgba(200, 202, 203, 1)"></path><path d="M498.75 962.5 a8.75 8.75 0 1 0 17.5 0 a8.75 8.75 0 1 0 -17.5 0zM533.75 752.5 a8.75 8.75 0 1 0 17.5 0 a8.75 8.75 0 1 0 -17.5 0z" fill="rgba(200, 202, 203, 1)"></path><path d="M612.5 122.5L612.5 17.5" stroke-width="5.83" stroke="rgba(200, 202, 203, 1)"></path><path d="M603.75 122.5 a8.75 8.75 0 1 0 17.5 0 a8.75 8.75 0 1 0 -17.5 0zM603.75 17.5 a8.75 8.75 0 1 0 17.5 0 a8.75 8.75 0 1 0 -17.5 0z" fill="rgba(200, 202, 203, 1)"></path><path d="M1802.5 437.5L1872.5 507.5L1907.5 507.5" stroke-width="5.83" stroke="rgba(200, 202, 203, 1)"></path><path d="M1793.75 437.5 a8.75 8.75 0 1 0 17.5 0 a8.75 8.75 0 1 0 -17.5 0zM1898.75 507.5 a8.75 8.75 0 1 0 17.5 0 a8.75 8.75 0 1 0 -17.5 0z" fill="rgba(200, 202, 203, 1)"></path><path d="M2362.5 857.5L2292.5 787.5L2257.5 787.5" stroke-width="5.83" stroke="rgba(200, 202, 203, 1)"></path><path d="M2353.75 857.5 a8.75 8.75 0 1 0 17.5 0 a8.75 8.75 0 1 0 -17.5 0zM2248.75 787.5 a8.75 8.75 0 1 0 17.5 0 a8.75 8.75 0 1 0 -17.5 0z" fill="rgba(200, 202, 203, 1)"></path><path d="M1137.5 507.5L1277.5 507.5L1312.5 472.5L1312.5 437.5" stroke-width="5.83" stroke="rgba(200, 202, 203, 1)"></path><path d="M1128.75 507.5 a8.75 8.75 0 1 0 17.5 0 a8.75 8.75 0 1 0 -17.5 0zM1303.75 437.5 a8.75 8.75 0 1 0 17.5 0 a8.75 8.75 0 1 0 -17.5 0z" fill="rgba(200, 202, 203, 1)"></path><path d="M1102.5 647.5L1102.5 542.5" stroke-width="5.83" stroke="rgba(200, 202, 203, 1)"></path><path d="M1093.75 647.5 a8.75 8.75 0 1 0 17.5 0 a8.75 8.75 0 1 0 -17.5 0zM1093.75 542.5 a8.75 8.75 0 1 0 17.5 0 a8.75 8.75 0 1 0 -17.5 0z" fill="rgba(200, 202, 203, 1)"></path><path d="M2152.5 52.5L2152.5 122.5" stroke-width="5.83" stroke="rgba(200, 202, 203, 1)"></path><path d="M2143.75 52.5 a8.75 8.75 0 1 0 17.5 0 a8.75 8.75 0 1 0 -17.5 0zM2143.75 122.5 a8.75 8.75 0 1 0 17.5 0 a8.75 8.75 0 1 0 -17.5 0z" fill="rgba(200, 202, 203, 1)"></path><path d="M1032.5 227.5L1102.5 227.5L1137.5 192.5L1137.5 157.5L1172.5 122.5" stroke-width="5.83" stroke="rgba(200, 202, 203, 1)"></path><path d="M1023.75 227.5 a8.75 8.75 0 1 0 17.5 0 a8.75 8.75 0 1 0 -17.5 0zM1163.75 122.5 a8.75 8.75 0 1 0 17.5 0 a8.75 8.75 0 1 0 -17.5 0z" fill="rgba(200, 202, 203, 1)"></path><path d="M17.5 227.5L157.5 227.5" stroke-width="5.83" stroke="rgba(200, 202, 203, 1)"></path><path d="M8.75 227.5 a8.75 8.75 0 1 0 17.5 0 a8.75 8.75 0 1 0 -17.5 0zM148.75 227.5 a8.75 8.75 0 1 0 17.5 0 a8.75 8.75 0 1 0 -17.5 0z" fill="rgba(200, 202, 203, 1)"></path><path d="M437.5 542.5L297.5 682.5L227.5 682.5" stroke-width="5.83" stroke="rgba(200, 202, 203, 1)"></path><path d="M428.75 542.5 a8.75 8.75 0 1 0 17.5 0 a8.75 8.75 0 1 0 -17.5 0zM218.75 682.5 a8.75 8.75 0 1 0 17.5 0 a8.75 8.75 0 1 0 -17.5 0z" fill="rgba(200, 202, 203, 1)"></path><path d="M2257.5 682.5L2397.5 682.5" stroke-width="5.83" stroke="rgba(200, 202, 203, 1)"></path><path d="M2248.75 682.5 a8.75 8.75 0 1 0 17.5 0 a8.75 8.75 0 1 0 -17.5 0zM2388.75 682.5 a8.75 8.75 0 1 0 17.5 0 a8.75 8.75 0 1 0 -17.5 0z" fill="rgba(200, 202, 203, 1)"></path><path d="M682.5 87.5L647.5 52.5L647.5 17.5" stroke-width="5.83" stroke="rgba(200, 202, 203, 1)"></path><path d="M673.75 87.5 a8.75 8.75 0 1 0 17.5 0 a8.75 8.75 0 1 0 -17.5 0zM638.75 17.5 a8.75 8.75 0 1 0 17.5 0 a8.75 8.75 0 1 0 -17.5 0z" fill="rgba(200, 202, 203, 1)"></path><path d="M2012.5 332.5L2047.5 332.5L2082.5 297.5L2082.5 262.5" stroke-width="5.83" stroke="rgba(200, 202, 203, 1)"></path><path d="M2003.75 332.5 a8.75 8.75 0 1 0 17.5 0 a8.75 8.75 0 1 0 -17.5 0zM2073.75 262.5 a8.75 8.75 0 1 0 17.5 0 a8.75 8.75 0 1 0 -17.5 0z" fill="rgba(200, 202, 203, 1)"></path><path d="M1172.5 472.5L1277.5 472.5" stroke-width="5.83" stroke="rgba(200, 202, 203, 1)"></path><path d="M1163.75 472.5 a8.75 8.75 0 1 0 17.5 0 a8.75 8.75 0 1 0 -17.5 0zM1268.75 472.5 a8.75 8.75 0 1 0 17.5 0 a8.75 8.75 0 1 0 -17.5 0z" fill="rgba(200, 202, 203, 1)"></path><path d="M682.5 857.5L612.5 857.5" stroke-width="5.83" stroke="rgba(200, 202, 203, 1)"></path><path d="M673.75 857.5 a8.75 8.75 0 1 0 17.5 0 a8.75 8.75 0 1 0 -17.5 0zM603.75 857.5 a8.75 8.75 0 1 0 17.5 0 a8.75 8.75 0 1 0 -17.5 0z" fill="rgba(200, 202, 203, 1)"></path><path d="M1207.5 577.5L1172.5 542.5L1137.5 542.5" stroke-width="5.83" stroke="rgba(200, 202, 203, 1)"></path><path d="M1198.75 577.5 a8.75 8.75 0 1 0 17.5 0 a8.75 8.75 0 1 0 -17.5 0zM1128.75 542.5 a8.75 8.75 0 1 0 17.5 0 a8.75 8.75 0 1 0 -17.5 0z" fill="rgba(200, 202, 203, 1)"></path><path d="M367.5 542.5L367.5 577.5L297.5 647.5L262.5 647.5" stroke-width="5.83" stroke="rgba(200, 202, 203, 1)"></path><path d="M358.75 542.5 a8.75 8.75 0 1 0 17.5 0 a8.75 8.75 0 1 0 -17.5 0zM253.75 647.5 a8.75 8.75 0 1 0 17.5 0 a8.75 8.75 0 1 0 -17.5 0z" fill="rgba(200, 202, 203, 1)"></path><path d="M1032.5 87.5L962.5 157.5" stroke-width="5.83" stroke="rgba(200, 202, 203, 1)"></path><path d="M1023.75 87.5 a8.75 8.75 0 1 0 17.5 0 a8.75 8.75 0 1 0 -17.5 0zM953.75 157.5 a8.75 8.75 0 1 0 17.5 0 a8.75 8.75 0 1 0 -17.5 0z" fill="rgba(200, 202, 203, 1)"></path><path d="M1907.5 787.5L1907.5 857.5" stroke-width="5.83" stroke="rgba(200, 202, 203, 1)"></path><path d="M1898.75 787.5 a8.75 8.75 0 1 0 17.5 0 a8.75 8.75 0 1 0 -17.5 0zM1898.75 857.5 a8.75 8.75 0 1 0 17.5 0 a8.75 8.75 0 1 0 -17.5 0z" fill="rgba(200, 202, 203, 1)"></path><path d="M157.5 577.5L227.5 507.5L332.5 507.5L367.5 472.5" stroke-width="5.83" stroke="rgba(200, 202, 203, 1)"></path><path d="M148.75 577.5 a8.75 8.75 0 1 0 17.5 0 a8.75 8.75 0 1 0 -17.5 0zM358.75 472.5 a8.75 8.75 0 1 0 17.5 0 a8.75 8.75 0 1 0 -17.5 0z" fill="rgba(200, 202, 203, 1)"></path><path d="M1207.5 752.5L1172.5 787.5L1172.5 822.5L1242.5 892.5" stroke-width="5.83" stroke="rgba(200, 202, 203, 1)"></path><path d="M1198.75 752.5 a8.75 8.75 0 1 0 17.5 0 a8.75 8.75 0 1 0 -17.5 0zM1233.75 892.5 a8.75 8.75 0 1 0 17.5 0 a8.75 8.75 0 1 0 -17.5 0z" fill="rgba(200, 202, 203, 1)"></path><path d="M1662.5 997.5L1452.5 997.5" stroke-width="5.83" stroke="rgba(200, 202, 203, 1)"></path><path d="M1653.75 997.5 a8.75 8.75 0 1 0 17.5 0 a8.75 8.75 0 1 0 -17.5 0zM1443.75 997.5 a8.75 8.75 0 1 0 17.5 0 a8.75 8.75 0 1 0 -17.5 0z" fill="rgba(200, 202, 203, 1)"></path><path d="M787.5 332.5L787.5 297.5L717.5 227.5L682.5 227.5" stroke-width="5.83" stroke="rgba(200, 202, 203, 1)"></path><path d="M778.75 332.5 a8.75 8.75 0 1 0 17.5 0 a8.75 8.75 0 1 0 -17.5 0zM673.75 227.5 a8.75 8.75 0 1 0 17.5 0 a8.75 8.75 0 1 0 -17.5 0z" fill="rgba(200, 202, 203, 1)"></path><path d="M2362.5 332.5L2362.5 367.5L2327.5 402.5" stroke-width="5.83" stroke="rgba(200, 202, 203, 1)"></path><path d="M2353.75 332.5 a8.75 8.75 0 1 0 17.5 0 a8.75 8.75 0 1 0 -17.5 0zM2318.75 402.5 a8.75 8.75 0 1 0 17.5 0 a8.75 8.75 0 1 0 -17.5 0z" fill="rgba(200, 202, 203, 1)"></path><path d="M157.5 787.5L52.5 892.5L52.5 927.5" stroke-width="5.83" stroke="rgba(200, 202, 203, 1)"></path><path d="M148.75 787.5 a8.75 8.75 0 1 0 17.5 0 a8.75 8.75 0 1 0 -17.5 0zM43.75 927.5 a8.75 8.75 0 1 0 17.5 0 a8.75 8.75 0 1 0 -17.5 0z" fill="rgba(200, 202, 203, 1)"></path><path d="M1627.5 17.5L1522.5 17.5" stroke-width="5.83" stroke="rgba(200, 202, 203, 1)"></path><path d="M1618.75 17.5 a8.75 8.75 0 1 0 17.5 0 a8.75 8.75 0 1 0 -17.5 0zM1513.75 17.5 a8.75 8.75 0 1 0 17.5 0 a8.75 8.75 0 1 0 -17.5 0z" fill="rgba(200, 202, 203, 1)"></path><path d="M2432.5 822.5L2432.5 962.5" stroke-width="5.83" stroke="rgba(200, 202, 203, 1)"></path><path d="M2423.75 822.5 a8.75 8.75 0 1 0 17.5 0 a8.75 8.75 0 1 0 -17.5 0zM2423.75 962.5 a8.75 8.75 0 1 0 17.5 0 a8.75 8.75 0 1 0 -17.5 0z" fill="rgba(200, 202, 203, 1)"></path><path d="M1872.5 157.5L1942.5 157.5" stroke-width="5.83" stroke="rgba(200, 202, 203, 1)"></path><path d="M1863.75 157.5 a8.75 8.75 0 1 0 17.5 0 a8.75 8.75 0 1 0 -17.5 0zM1933.75 157.5 a8.75 8.75 0 1 0 17.5 0 a8.75 8.75 0 1 0 -17.5 0z" fill="rgba(200, 202, 203, 1)"></path><path d="M647.5 437.5L682.5 402.5L682.5 367.5L647.5 332.5L647.5 297.5" stroke-width="5.83" stroke="rgba(200, 202, 203, 1)"></path><path d="M638.75 437.5 a8.75 8.75 0 1 0 17.5 0 a8.75 8.75 0 1 0 -17.5 0zM638.75 297.5 a8.75 8.75 0 1 0 17.5 0 a8.75 8.75 0 1 0 -17.5 0z" fill="rgba(200, 202, 203, 1)"></path><path d="M752.5 437.5L682.5 437.5" stroke-width="5.83" stroke="rgba(200, 202, 203, 1)"></path><path d="M743.75 437.5 a8.75 8.75 0 1 0 17.5 0 a8.75 8.75 0 1 0 -17.5 0zM673.75 437.5 a8.75 8.75 0 1 0 17.5 0 a8.75 8.75 0 1 0 -17.5 0z" fill="rgba(200, 202, 203, 1)"></path><path d="M2257.5 892.5L2397.5 892.5" stroke-width="5.83" stroke="rgba(200, 202, 203, 1)"></path><path d="M2248.75 892.5 a8.75 8.75 0 1 0 17.5 0 a8.75 8.75 0 1 0 -17.5 0zM2388.75 892.5 a8.75 8.75 0 1 0 17.5 0 a8.75 8.75 0 1 0 -17.5 0z" fill="rgba(200, 202, 203, 1)"></path><path d="M262.5 192.5L332.5 192.5" stroke-width="5.83" stroke="rgba(200, 202, 203, 1)"></path><path d="M253.75 192.5 a8.75 8.75 0 1 0 17.5 0 a8.75 8.75 0 1 0 -17.5 0zM323.75 192.5 a8.75 8.75 0 1 0 17.5 0 a8.75 8.75 0 1 0 -17.5 0z" fill="rgba(200, 202, 203, 1)"></path><path d="M2047.5 717.5L1942.5 612.5L1942.5 577.5" stroke-width="5.83" stroke="rgba(200, 202, 203, 1)"></path><path d="M2038.75 717.5 a8.75 8.75 0 1 0 17.5 0 a8.75 8.75 0 1 0 -17.5 0zM1933.75 577.5 a8.75 8.75 0 1 0 17.5 0 a8.75 8.75 0 1 0 -17.5 0z" fill="rgba(200, 202, 203, 1)"></path><path d="M1732.5 297.5L1767.5 297.5L1837.5 227.5L1907.5 227.5" stroke-width="5.83" stroke="rgba(200, 202, 203, 1)"></path><path d="M1723.75 297.5 a8.75 8.75 0 1 0 17.5 0 a8.75 8.75 0 1 0 -17.5 0zM1898.75 227.5 a8.75 8.75 0 1 0 17.5 0 a8.75 8.75 0 1 0 -17.5 0z" fill="rgba(200, 202, 203, 1)"></path><path d="M822.5 122.5L752.5 122.5" stroke-width="5.83" stroke="rgba(200, 202, 203, 1)"></path><path d="M813.75 122.5 a8.75 8.75 0 1 0 17.5 0 a8.75 8.75 0 1 0 -17.5 0zM743.75 122.5 a8.75 8.75 0 1 0 17.5 0 a8.75 8.75 0 1 0 -17.5 0z" fill="rgba(200, 202, 203, 1)"></path><path d="M1487.5 752.5L1452.5 717.5L1452.5 682.5" stroke-width="5.83" stroke="rgba(200, 202, 203, 1)"></path><path d="M1478.75 752.5 a8.75 8.75 0 1 0 17.5 0 a8.75 8.75 0 1 0 -17.5 0zM1443.75 682.5 a8.75 8.75 0 1 0 17.5 0 a8.75 8.75 0 1 0 -17.5 0z" fill="rgba(200, 202, 203, 1)"></path><path d="M1627.5 437.5L1872.5 682.5" stroke-width="5.83" stroke="rgba(200, 202, 203, 1)"></path><path d="M1618.75 437.5 a8.75 8.75 0 1 0 17.5 0 a8.75 8.75 0 1 0 -17.5 0zM1863.75 682.5 a8.75 8.75 0 1 0 17.5 0 a8.75 8.75 0 1 0 -17.5 0z" fill="rgba(200, 202, 203, 1)"></path><path d="M822.5 577.5L857.5 577.5L997.5 437.5" stroke-width="5.83" stroke="rgba(200, 202, 203, 1)"></path><path d="M813.75 577.5 a8.75 8.75 0 1 0 17.5 0 a8.75 8.75 0 1 0 -17.5 0zM988.75 437.5 a8.75 8.75 0 1 0 17.5 0 a8.75 8.75 0 1 0 -17.5 0z" fill="rgba(200, 202, 203, 1)"></path><path d="M1872.5 52.5L1837.5 52.5L1802.5 17.5" stroke-width="5.83" stroke="rgba(200, 202, 203, 1)"></path><path d="M1863.75 52.5 a8.75 8.75 0 1 0 17.5 0 a8.75 8.75 0 1 0 -17.5 0zM1793.75 17.5 a8.75 8.75 0 1 0 17.5 0 a8.75 8.75 0 1 0 -17.5 0z" fill="rgba(200, 202, 203, 1)"></path><path d="M577.5 122.5L577.5 87.5L542.5 52.5L542.5 17.5" stroke-width="5.83" stroke="rgba(200, 202, 203, 1)"></path><path d="M568.75 122.5 a8.75 8.75 0 1 0 17.5 0 a8.75 8.75 0 1 0 -17.5 0zM533.75 17.5 a8.75 8.75 0 1 0 17.5 0 a8.75 8.75 0 1 0 -17.5 0z" fill="rgba(200, 202, 203, 1)"></path><path d="M1592.5 962.5L1697.5 962.5L1732.5 997.5" stroke-width="5.83" stroke="rgba(200, 202, 203, 1)"></path><path d="M1583.75 962.5 a8.75 8.75 0 1 0 17.5 0 a8.75 8.75 0 1 0 -17.5 0zM1723.75 997.5 a8.75 8.75 0 1 0 17.5 0 a8.75 8.75 0 1 0 -17.5 0z" fill="rgba(200, 202, 203, 1)"></path><path d="M927.5 787.5L962.5 787.5L1032.5 857.5L1067.5 857.5" stroke-width="5.83" stroke="rgba(200, 202, 203, 1)"></path><path d="M918.75 787.5 a8.75 8.75 0 1 0 17.5 0 a8.75 8.75 0 1 0 -17.5 0zM1058.75 857.5 a8.75 8.75 0 1 0 17.5 0 a8.75 8.75 0 1 0 -17.5 0z" fill="rgba(200, 202, 203, 1)"></path><path d="M402.5 822.5L437.5 857.5L507.5 857.5" stroke-width="5.83" stroke="rgba(200, 202, 203, 1)"></path><path d="M393.75 822.5 a8.75 8.75 0 1 0 17.5 0 a8.75 8.75 0 1 0 -17.5 0zM498.75 857.5 a8.75 8.75 0 1 0 17.5 0 a8.75 8.75 0 1 0 -17.5 0z" fill="rgba(200, 202, 203, 1)"></path><path d="M1522.5 402.5L1802.5 682.5L1837.5 682.5" stroke-width="5.83" stroke="rgba(200, 202, 203, 1)"></path><path d="M1513.75 402.5 a8.75 8.75 0 1 0 17.5 0 a8.75 8.75 0 1 0 -17.5 0zM1828.75 682.5 a8.75 8.75 0 1 0 17.5 0 a8.75 8.75 0 1 0 -17.5 0z" fill="rgba(200, 202, 203, 1)"></path><path d="M717.5 962.5L612.5 962.5" stroke-width="5.83" stroke="rgba(200, 202, 203, 1)"></path><path d="M708.75 962.5 a8.75 8.75 0 1 0 17.5 0 a8.75 8.75 0 1 0 -17.5 0zM603.75 962.5 a8.75 8.75 0 1 0 17.5 0 a8.75 8.75 0 1 0 -17.5 0z" fill="rgba(200, 202, 203, 1)"></path><path d="M1592.5 437.5L1592.5 402.5L1557.5 367.5L1522.5 367.5" stroke-width="5.83" stroke="rgba(200, 202, 203, 1)"></path><path d="M1583.75 437.5 a8.75 8.75 0 1 0 17.5 0 a8.75 8.75 0 1 0 -17.5 0zM1513.75 367.5 a8.75 8.75 0 1 0 17.5 0 a8.75 8.75 0 1 0 -17.5 0z" fill="rgba(200, 202, 203, 1)"></path><path d="M2362.5 17.5L2292.5 17.5" stroke-width="5.83" stroke="rgba(200, 202, 203, 1)"></path><path d="M2353.75 17.5 a8.75 8.75 0 1 0 17.5 0 a8.75 8.75 0 1 0 -17.5 0zM2283.75 17.5 a8.75 8.75 0 1 0 17.5 0 a8.75 8.75 0 1 0 -17.5 0z" fill="rgba(200, 202, 203, 1)"></path><path d="M367.5 857.5L367.5 822.5L332.5 787.5" stroke-width="5.83" stroke="rgba(200, 202, 203, 1)"></path><path d="M358.75 857.5 a8.75 8.75 0 1 0 17.5 0 a8.75 8.75 0 1 0 -17.5 0zM323.75 787.5 a8.75 8.75 0 1 0 17.5 0 a8.75 8.75 0 1 0 -17.5 0z" fill="rgba(200, 202, 203, 1)"></path><path d="M157.5 122.5L157.5 87.5L192.5 52.5L192.5 17.5" stroke-width="5.83" stroke="rgba(200, 202, 203, 1)"></path><path d="M148.75 122.5 a8.75 8.75 0 1 0 17.5 0 a8.75 8.75 0 1 0 -17.5 0zM183.75 17.5 a8.75 8.75 0 1 0 17.5 0 a8.75 8.75 0 1 0 -17.5 0z" fill="rgba(200, 202, 203, 1)"></path><path d="M1172.5 962.5L1242.5 962.5" stroke-width="5.83" stroke="rgba(200, 202, 203, 1)"></path><path d="M1163.75 962.5 a8.75 8.75 0 1 0 17.5 0 a8.75 8.75 0 1 0 -17.5 0zM1233.75 962.5 a8.75 8.75 0 1 0 17.5 0 a8.75 8.75 0 1 0 -17.5 0z" fill="rgba(200, 202, 203, 1)"></path><path d="M1417.5 752.5L1382.5 717.5L1242.5 717.5" stroke-width="5.83" stroke="rgba(200, 202, 203, 1)"></path><path d="M1408.75 752.5 a8.75 8.75 0 1 0 17.5 0 a8.75 8.75 0 1 0 -17.5 0zM1233.75 717.5 a8.75 8.75 0 1 0 17.5 0 a8.75 8.75 0 1 0 -17.5 0z" fill="rgba(200, 202, 203, 1)"></path><path d="M2082.5 962.5L2117.5 927.5L2187.5 927.5" stroke-width="5.83" stroke="rgba(200, 202, 203, 1)"></path><path d="M2073.75 962.5 a8.75 8.75 0 1 0 17.5 0 a8.75 8.75 0 1 0 -17.5 0zM2178.75 927.5 a8.75 8.75 0 1 0 17.5 0 a8.75 8.75 0 1 0 -17.5 0z" fill="rgba(200, 202, 203, 1)"></path><path d="M2117.5 682.5L2082.5 647.5L2012.5 647.5L1977.5 612.5L1977.5 577.5" stroke-width="5.83" stroke="rgba(200, 202, 203, 1)"></path><path d="M2108.75 682.5 a8.75 8.75 0 1 0 17.5 0 a8.75 8.75 0 1 0 -17.5 0zM1968.75 577.5 a8.75 8.75 0 1 0 17.5 0 a8.75 8.75 0 1 0 -17.5 0z" fill="rgba(200, 202, 203, 1)"></path><path d="M1207.5 822.5L1207.5 787.5L1242.5 752.5L1312.5 752.5" stroke-width="5.83" stroke="rgba(200, 202, 203, 1)"></path><path d="M1198.75 822.5 a8.75 8.75 0 1 0 17.5 0 a8.75 8.75 0 1 0 -17.5 0zM1303.75 752.5 a8.75 8.75 0 1 0 17.5 0 a8.75 8.75 0 1 0 -17.5 0z" fill="rgba(200, 202, 203, 1)"></path><path d="M822.5 822.5L752.5 752.5" stroke-width="5.83" stroke="rgba(200, 202, 203, 1)"></path><path d="M813.75 822.5 a8.75 8.75 0 1 0 17.5 0 a8.75 8.75 0 1 0 -17.5 0zM743.75 752.5 a8.75 8.75 0 1 0 17.5 0 a8.75 8.75 0 1 0 -17.5 0z" fill="rgba(200, 202, 203, 1)"></path><path d="M2362.5 752.5L2397.5 752.5L2432.5 787.5" stroke-width="5.83" stroke="rgba(200, 202, 203, 1)"></path><path d="M2353.75 752.5 a8.75 8.75 0 1 0 17.5 0 a8.75 8.75 0 1 0 -17.5 0zM2423.75 787.5 a8.75 8.75 0 1 0 17.5 0 a8.75 8.75 0 1 0 -17.5 0z" fill="rgba(200, 202, 203, 1)"></path><path d="M2327.5 787.5L2327.5 717.5" stroke-width="5.83" stroke="rgba(200, 202, 203, 1)"></path><path d="M2318.75 787.5 a8.75 8.75 0 1 0 17.5 0 a8.75 8.75 0 1 0 -17.5 0zM2318.75 717.5 a8.75 8.75 0 1 0 17.5 0 a8.75 8.75 0 1 0 -17.5 0z" fill="rgba(200, 202, 203, 1)"></path><path d="M2467.5 52.5L2467.5 192.5L2432.5 227.5" stroke-width="5.83" stroke="rgba(200, 202, 203, 1)"></path><path d="M2458.75 52.5 a8.75 8.75 0 1 0 17.5 0 a8.75 8.75 0 1 0 -17.5 0zM2423.75 227.5 a8.75 8.75 0 1 0 17.5 0 a8.75 8.75 0 1 0 -17.5 0z" fill="rgba(200, 202, 203, 1)"></path><path d="M1627.5 157.5L1592.5 157.5L1557.5 122.5" stroke-width="5.83" stroke="rgba(200, 202, 203, 1)"></path><path d="M1618.75 157.5 a8.75 8.75 0 1 0 17.5 0 a8.75 8.75 0 1 0 -17.5 0zM1548.75 122.5 a8.75 8.75 0 1 0 17.5 0 a8.75 8.75 0 1 0 -17.5 0z" fill="rgba(200, 202, 203, 1)"></path><path d="M962.5 752.5L892.5 752.5" stroke-width="5.83" stroke="rgba(200, 202, 203, 1)"></path><path d="M953.75 752.5 a8.75 8.75 0 1 0 17.5 0 a8.75 8.75 0 1 0 -17.5 0zM883.75 752.5 a8.75 8.75 0 1 0 17.5 0 a8.75 8.75 0 1 0 -17.5 0z" fill="rgba(200, 202, 203, 1)"></path><path d="M612.5 542.5L577.5 507.5L542.5 507.5" stroke-width="5.83" stroke="rgba(200, 202, 203, 1)"></path><path d="M603.75 542.5 a8.75 8.75 0 1 0 17.5 0 a8.75 8.75 0 1 0 -17.5 0zM533.75 507.5 a8.75 8.75 0 1 0 17.5 0 a8.75 8.75 0 1 0 -17.5 0z" fill="rgba(200, 202, 203, 1)"></path><path d="M2432.5 122.5L2432.5 17.5" stroke-width="5.83" stroke="rgba(200, 202, 203, 1)"></path><path d="M2423.75 122.5 a8.75 8.75 0 1 0 17.5 0 a8.75 8.75 0 1 0 -17.5 0zM2423.75 17.5 a8.75 8.75 0 1 0 17.5 0 a8.75 8.75 0 1 0 -17.5 0z" fill="rgba(200, 202, 203, 1)"></path><path d="M1277.5 647.5L1207.5 647.5" stroke-width="5.83" stroke="rgba(200, 202, 203, 1)"></path><path d="M1268.75 647.5 a8.75 8.75 0 1 0 17.5 0 a8.75 8.75 0 1 0 -17.5 0zM1198.75 647.5 a8.75 8.75 0 1 0 17.5 0 a8.75 8.75 0 1 0 -17.5 0z" fill="rgba(200, 202, 203, 1)"></path><path d="M52.5 402.5L17.5 437.5L17.5 542.5" stroke-width="5.83" stroke="rgba(200, 202, 203, 1)"></path><path d="M43.75 402.5 a8.75 8.75 0 1 0 17.5 0 a8.75 8.75 0 1 0 -17.5 0zM8.75 542.5 a8.75 8.75 0 1 0 17.5 0 a8.75 8.75 0 1 0 -17.5 0z" fill="rgba(200, 202, 203, 1)"></path><path d="M857.5 367.5L892.5 402.5L892.5 437.5" stroke-width="5.83" stroke="rgba(200, 202, 203, 1)"></path><path d="M848.75 367.5 a8.75 8.75 0 1 0 17.5 0 a8.75 8.75 0 1 0 -17.5 0zM883.75 437.5 a8.75 8.75 0 1 0 17.5 0 a8.75 8.75 0 1 0 -17.5 0z" fill="rgba(200, 202, 203, 1)"></path><path d="M52.5 472.5L52.5 437.5L87.5 402.5L157.5 402.5" stroke-width="5.83" stroke="rgba(200, 202, 203, 1)"></path><path d="M43.75 472.5 a8.75 8.75 0 1 0 17.5 0 a8.75 8.75 0 1 0 -17.5 0zM148.75 402.5 a8.75 8.75 0 1 0 17.5 0 a8.75 8.75 0 1 0 -17.5 0z" fill="rgba(200, 202, 203, 1)"></path><path d="M1102.5 192.5L1032.5 192.5L997.5 157.5" stroke-width="5.83" stroke="rgba(200, 202, 203, 1)"></path><path d="M1093.75 192.5 a8.75 8.75 0 1 0 17.5 0 a8.75 8.75 0 1 0 -17.5 0zM988.75 157.5 a8.75 8.75 0 1 0 17.5 0 a8.75 8.75 0 1 0 -17.5 0z" fill="rgba(200, 202, 203, 1)"></path><path d="M52.5 332.5L17.5 297.5L17.5 262.5" stroke-width="5.83" stroke="rgba(200, 202, 203, 1)"></path><path d="M43.75 332.5 a8.75 8.75 0 1 0 17.5 0 a8.75 8.75 0 1 0 -17.5 0zM8.75 262.5 a8.75 8.75 0 1 0 17.5 0 a8.75 8.75 0 1 0 -17.5 0z" fill="rgba(200, 202, 203, 1)"></path><path d="M1312.5 612.5L1347.5 647.5L1382.5 647.5" stroke-width="5.83" stroke="rgba(200, 202, 203, 1)"></path><path d="M1303.75 612.5 a8.75 8.75 0 1 0 17.5 0 a8.75 8.75 0 1 0 -17.5 0zM1373.75 647.5 a8.75 8.75 0 1 0 17.5 0 a8.75 8.75 0 1 0 -17.5 0z" fill="rgba(200, 202, 203, 1)"></path><path d="M1382.5 822.5L1452.5 822.5" stroke-width="5.83" stroke="rgba(200, 202, 203, 1)"></path><path d="M1373.75 822.5 a8.75 8.75 0 1 0 17.5 0 a8.75 8.75 0 1 0 -17.5 0zM1443.75 822.5 a8.75 8.75 0 1 0 17.5 0 a8.75 8.75 0 1 0 -17.5 0z" fill="rgba(200, 202, 203, 1)"></path><path d="M1977.5 367.5L1977.5 297.5L2012.5 262.5L2047.5 262.5" stroke-width="5.83" stroke="rgba(200, 202, 203, 1)"></path><path d="M1968.75 367.5 a8.75 8.75 0 1 0 17.5 0 a8.75 8.75 0 1 0 -17.5 0zM2038.75 262.5 a8.75 8.75 0 1 0 17.5 0 a8.75 8.75 0 1 0 -17.5 0z" fill="rgba(200, 202, 203, 1)"></path><path d="M857.5 402.5L822.5 402.5L787.5 437.5" stroke-width="5.83" stroke="rgba(200, 202, 203, 1)"></path><path d="M848.75 402.5 a8.75 8.75 0 1 0 17.5 0 a8.75 8.75 0 1 0 -17.5 0zM778.75 437.5 a8.75 8.75 0 1 0 17.5 0 a8.75 8.75 0 1 0 -17.5 0z" fill="rgba(200, 202, 203, 1)"></path><path d="M1732.5 157.5L1697.5 192.5L1697.5 297.5" stroke-width="5.83" stroke="rgba(200, 202, 203, 1)"></path><path d="M1723.75 157.5 a8.75 8.75 0 1 0 17.5 0 a8.75 8.75 0 1 0 -17.5 0zM1688.75 297.5 a8.75 8.75 0 1 0 17.5 0 a8.75 8.75 0 1 0 -17.5 0z" fill="rgba(200, 202, 203, 1)"></path><path d="M2327.5 857.5L2292.5 822.5L2257.5 822.5" stroke-width="5.83" stroke="rgba(200, 202, 203, 1)"></path><path d="M2318.75 857.5 a8.75 8.75 0 1 0 17.5 0 a8.75 8.75 0 1 0 -17.5 0zM2248.75 822.5 a8.75 8.75 0 1 0 17.5 0 a8.75 8.75 0 1 0 -17.5 0z" fill="rgba(200, 202, 203, 1)"></path><path d="M402.5 192.5L472.5 192.5" stroke-width="5.83" stroke="rgba(200, 202, 203, 1)"></path><path d="M393.75 192.5 a8.75 8.75 0 1 0 17.5 0 a8.75 8.75 0 1 0 -17.5 0zM463.75 192.5 a8.75 8.75 0 1 0 17.5 0 a8.75 8.75 0 1 0 -17.5 0z" fill="rgba(200, 202, 203, 1)"></path><path d="M2047.5 857.5L2047.5 892.5L2012.5 927.5" stroke-width="5.83" stroke="rgba(200, 202, 203, 1)"></path><path d="M2038.75 857.5 a8.75 8.75 0 1 0 17.5 0 a8.75 8.75 0 1 0 -17.5 0zM2003.75 927.5 a8.75 8.75 0 1 0 17.5 0 a8.75 8.75 0 1 0 -17.5 0z" fill="rgba(200, 202, 203, 1)"></path><path d="M1557.5 962.5L1557.5 927.5L1592.5 892.5" stroke-width="5.83" stroke="rgba(200, 202, 203, 1)"></path><path d="M1548.75 962.5 a8.75 8.75 0 1 0 17.5 0 a8.75 8.75 0 1 0 -17.5 0zM1583.75 892.5 a8.75 8.75 0 1 0 17.5 0 a8.75 8.75 0 1 0 -17.5 0z" fill="rgba(200, 202, 203, 1)"></path><path d="M507.5 787.5L472.5 822.5L437.5 822.5" stroke-width="5.83" stroke="rgba(200, 202, 203, 1)"></path><path d="M498.75 787.5 a8.75 8.75 0 1 0 17.5 0 a8.75 8.75 0 1 0 -17.5 0zM428.75 822.5 a8.75 8.75 0 1 0 17.5 0 a8.75 8.75 0 1 0 -17.5 0z" fill="rgba(200, 202, 203, 1)"></path><path d="M1067.5 822.5L1032.5 822.5L997.5 787.5" stroke-width="5.83" stroke="rgba(200, 202, 203, 1)"></path><path d="M1058.75 822.5 a8.75 8.75 0 1 0 17.5 0 a8.75 8.75 0 1 0 -17.5 0zM988.75 787.5 a8.75 8.75 0 1 0 17.5 0 a8.75 8.75 0 1 0 -17.5 0z" fill="rgba(200, 202, 203, 1)"></path><path d="M1627.5 227.5L1627.5 332.5" stroke-width="5.83" stroke="rgba(200, 202, 203, 1)"></path><path d="M1618.75 227.5 a8.75 8.75 0 1 0 17.5 0 a8.75 8.75 0 1 0 -17.5 0zM1618.75 332.5 a8.75 8.75 0 1 0 17.5 0 a8.75 8.75 0 1 0 -17.5 0z" fill="rgba(200, 202, 203, 1)"></path><path d="M2327.5 297.5L2292.5 332.5L2257.5 332.5L2222.5 297.5" stroke-width="5.83" stroke="rgba(200, 202, 203, 1)"></path><path d="M2318.75 297.5 a8.75 8.75 0 1 0 17.5 0 a8.75 8.75 0 1 0 -17.5 0zM2213.75 297.5 a8.75 8.75 0 1 0 17.5 0 a8.75 8.75 0 1 0 -17.5 0z" fill="rgba(200, 202, 203, 1)"></path><path d="M2117.5 472.5L2152.5 472.5L2187.5 507.5" stroke-width="5.83" stroke="rgba(200, 202, 203, 1)"></path><path d="M2108.75 472.5 a8.75 8.75 0 1 0 17.5 0 a8.75 8.75 0 1 0 -17.5 0zM2178.75 507.5 a8.75 8.75 0 1 0 17.5 0 a8.75 8.75 0 1 0 -17.5 0z" fill="rgba(200, 202, 203, 1)"></path><path d="M752.5 542.5L717.5 507.5L682.5 507.5" stroke-width="5.83" stroke="rgba(200, 202, 203, 1)"></path><path d="M743.75 542.5 a8.75 8.75 0 1 0 17.5 0 a8.75 8.75 0 1 0 -17.5 0zM673.75 507.5 a8.75 8.75 0 1 0 17.5 0 a8.75 8.75 0 1 0 -17.5 0z" fill="rgba(200, 202, 203, 1)"></path><path d="M1592.5 682.5L1592.5 787.5" stroke-width="5.83" stroke="rgba(200, 202, 203, 1)"></path><path d="M1583.75 682.5 a8.75 8.75 0 1 0 17.5 0 a8.75 8.75 0 1 0 -17.5 0zM1583.75 787.5 a8.75 8.75 0 1 0 17.5 0 a8.75 8.75 0 1 0 -17.5 0z" fill="rgba(200, 202, 203, 1)"></path><path d="M122.5 262.5L122.5 332.5" stroke-width="5.83" stroke="rgba(200, 202, 203, 1)"></path><path d="M113.75 262.5 a8.75 8.75 0 1 0 17.5 0 a8.75 8.75 0 1 0 -17.5 0zM113.75 332.5 a8.75 8.75 0 1 0 17.5 0 a8.75 8.75 0 1 0 -17.5 0z" fill="rgba(200, 202, 203, 1)"></path><path d="M1277.5 437.5L1207.5 437.5" stroke-width="5.83" stroke="rgba(200, 202, 203, 1)"></path><path d="M1268.75 437.5 a8.75 8.75 0 1 0 17.5 0 a8.75 8.75 0 1 0 -17.5 0zM1198.75 437.5 a8.75 8.75 0 1 0 17.5 0 a8.75 8.75 0 1 0 -17.5 0z" fill="rgba(200, 202, 203, 1)"></path></g></g><defs><mask id="SvgjsMask1238"><rect width="2500" height="1000" fill="#ffffff"></rect></mask><mask id="SvgjsMask1239"><rect width="2500" height="1000" fill="white"></rect><path d="M853.12 472.5 a4.38 4.38 0 1 0 8.76 0 a4.38 4.38 0 1 0 -8.76 0zM188.12 262.5 a4.38 4.38 0 1 0 8.76 0 a4.38 4.38 0 1 0 -8.76 0z" fill="black"></path><path d="M258.12 892.5 a4.38 4.38 0 1 0 8.76 0 a4.38 4.38 0 1 0 -8.76 0zM13.12 997.5 a4.38 4.38 0 1 0 8.76 0 a4.38 4.38 0 1 0 -8.76 0z" fill="black"></path><path d="M1518.12 822.5 a4.38 4.38 0 1 0 8.76 0 a4.38 4.38 0 1 0 -8.76 0zM923.12 962.5 a4.38 4.38 0 1 0 8.76 0 a4.38 4.38 0 1 0 -8.76 0z" fill="black"></path><path d="M503.12 157.5 a4.38 4.38 0 1 0 8.76 0 a4.38 4.38 0 1 0 -8.76 0zM13.12 192.5 a4.38 4.38 0 1 0 8.76 0 a4.38 4.38 0 1 0 -8.76 0z" fill="black"></path><path d="M2358.12 927.5 a4.38 4.38 0 1 0 8.76 0 a4.38 4.38 0 1 0 -8.76 0zM2358.12 997.5 a4.38 4.38 0 1 0 8.76 0 a4.38 4.38 0 1 0 -8.76 0z" fill="black"></path><path d="M2463.12 997.5 a4.38 4.38 0 1 0 8.76 0 a4.38 4.38 0 1 0 -8.76 0zM2498.12 332.5 a4.38 4.38 0 1 0 8.76 0 a4.38 4.38 0 1 0 -8.76 0z" fill="black"></path><path d="M48.12 822.5 a4.38 4.38 0 1 0 8.76 0 a4.38 4.38 0 1 0 -8.76 0zM713.12 717.5 a4.38 4.38 0 1 0 8.76 0 a4.38 4.38 0 1 0 -8.76 0z" fill="black"></path><path d="M1483.12 52.5 a4.38 4.38 0 1 0 8.76 0 a4.38 4.38 0 1 0 -8.76 0zM818.12 87.5 a4.38 4.38 0 1 0 8.76 0 a4.38 4.38 0 1 0 -8.76 0z" fill="black"></path><path d="M2463.12 437.5 a4.38 4.38 0 1 0 8.76 0 a4.38 4.38 0 1 0 -8.76 0zM2393.12 997.5 a4.38 4.38 0 1 0 8.76 0 a4.38 4.38 0 1 0 -8.76 0z" fill="black"></path><path d="M643.12 612.5 a4.38 4.38 0 1 0 8.76 0 a4.38 4.38 0 1 0 -8.76 0zM643.12 507.5 a4.38 4.38 0 1 0 8.76 0 a4.38 4.38 0 1 0 -8.76 0z" fill="black"></path><path d="M2253.12 157.5 a4.38 4.38 0 1 0 8.76 0 a4.38 4.38 0 1 0 -8.76 0zM2043.12 822.5 a4.38 4.38 0 1 0 8.76 0 a4.38 4.38 0 1 0 -8.76 0z" fill="black"></path><path d="M888.12 157.5 a4.38 4.38 0 1 0 8.76 0 a4.38 4.38 0 1 0 -8.76 0zM1273.12 87.5 a4.38 4.38 0 1 0 8.76 0 a4.38 4.38 0 1 0 -8.76 0z" fill="black"></path><path d="M1168.12 367.5 a4.38 4.38 0 1 0 8.76 0 a4.38 4.38 0 1 0 -8.76 0zM1763.12 507.5 a4.38 4.38 0 1 0 8.76 0 a4.38 4.38 0 1 0 -8.76 0z" fill="black"></path><path d="M748.12 682.5 a4.38 4.38 0 1 0 8.76 0 a4.38 4.38 0 1 0 -8.76 0zM923.12 297.5 a4.38 4.38 0 1 0 8.76 0 a4.38 4.38 0 1 0 -8.76 0z" fill="black"></path><path d="M678.12 157.5 a4.38 4.38 0 1 0 8.76 0 a4.38 4.38 0 1 0 -8.76 0zM573.12 437.5 a4.38 4.38 0 1 0 8.76 0 a4.38 4.38 0 1 0 -8.76 0z" fill="black"></path><path d="M363.12 647.5 a4.38 4.38 0 1 0 8.76 0 a4.38 4.38 0 1 0 -8.76 0zM783.12 997.5 a4.38 4.38 0 1 0 8.76 0 a4.38 4.38 0 1 0 -8.76 0z" fill="black"></path><path d="M2148.12 402.5 a4.38 4.38 0 1 0 8.76 0 a4.38 4.38 0 1 0 -8.76 0zM2288.12 542.5 a4.38 4.38 0 1 0 8.76 0 a4.38 4.38 0 1 0 -8.76 0z" fill="black"></path><path d="M2393.12 192.5 a4.38 4.38 0 1 0 8.76 0 a4.38 4.38 0 1 0 -8.76 0zM2393.12 17.5 a4.38 4.38 0 1 0 8.76 0 a4.38 4.38 0 1 0 -8.76 0z" fill="black"></path><path d="M1798.12 787.5 a4.38 4.38 0 1 0 8.76 0 a4.38 4.38 0 1 0 -8.76 0zM2323.12 997.5 a4.38 4.38 0 1 0 8.76 0 a4.38 4.38 0 1 0 -8.76 0z" fill="black"></path><path d="M1413.12 857.5 a4.38 4.38 0 1 0 8.76 0 a4.38 4.38 0 1 0 -8.76 0zM748.12 717.5 a4.38 4.38 0 1 0 8.76 0 a4.38 4.38 0 1 0 -8.76 0z" fill="black"></path><path d="M1588.12 647.5 a4.38 4.38 0 1 0 8.76 0 a4.38 4.38 0 1 0 -8.76 0zM1273.12 227.5 a4.38 4.38 0 1 0 8.76 0 a4.38 4.38 0 1 0 -8.76 0z" fill="black"></path><path d="M1763.12 892.5 a4.38 4.38 0 1 0 8.76 0 a4.38 4.38 0 1 0 -8.76 0zM1973.12 997.5 a4.38 4.38 0 1 0 8.76 0 a4.38 4.38 0 1 0 -8.76 0z" fill="black"></path><path d="M258.12 17.5 a4.38 4.38 0 1 0 8.76 0 a4.38 4.38 0 1 0 -8.76 0zM13.12 157.5 a4.38 4.38 0 1 0 8.76 0 a4.38 4.38 0 1 0 -8.76 0z" fill="black"></path><path d="M538.12 962.5 a4.38 4.38 0 1 0 8.76 0 a4.38 4.38 0 1 0 -8.76 0zM188.12 997.5 a4.38 4.38 0 1 0 8.76 0 a4.38 4.38 0 1 0 -8.76 0z" fill="black"></path><path d="M818.12 542.5 a4.38 4.38 0 1 0 8.76 0 a4.38 4.38 0 1 0 -8.76 0zM713.12 682.5 a4.38 4.38 0 1 0 8.76 0 a4.38 4.38 0 1 0 -8.76 0z" fill="black"></path><path d="M363.12 752.5 a4.38 4.38 0 1 0 8.76 0 a4.38 4.38 0 1 0 -8.76 0zM748.12 997.5 a4.38 4.38 0 1 0 8.76 0 a4.38 4.38 0 1 0 -8.76 0z" fill="black"></path><path d="M1168.12 647.5 a4.38 4.38 0 1 0 8.76 0 a4.38 4.38 0 1 0 -8.76 0zM1553.12 857.5 a4.38 4.38 0 1 0 8.76 0 a4.38 4.38 0 1 0 -8.76 0z" fill="black"></path><path d="M818.12 262.5 a4.38 4.38 0 1 0 8.76 0 a4.38 4.38 0 1 0 -8.76 0zM993.12 262.5 a4.38 4.38 0 1 0 8.76 0 a4.38 4.38 0 1 0 -8.76 0z" fill="black"></path><path d="M153.12 52.5 a4.38 4.38 0 1 0 8.76 0 a4.38 4.38 0 1 0 -8.76 0zM13.12 122.5 a4.38 4.38 0 1 0 8.76 0 a4.38 4.38 0 1 0 -8.76 0z" fill="black"></path><path d="M1343.12 507.5 a4.38 4.38 0 1 0 8.76 0 a4.38 4.38 0 1 0 -8.76 0zM1343.12 962.5 a4.38 4.38 0 1 0 8.76 0 a4.38 4.38 0 1 0 -8.76 0z" fill="black"></path><path d="M1868.12 87.5 a4.38 4.38 0 1 0 8.76 0 a4.38 4.38 0 1 0 -8.76 0zM1308.12 157.5 a4.38 4.38 0 1 0 8.76 0 a4.38 4.38 0 1 0 -8.76 0z" fill="black"></path><path d="M468.12 647.5 a4.38 4.38 0 1 0 8.76 0 a4.38 4.38 0 1 0 -8.76 0zM13.12 962.5 a4.38 4.38 0 1 0 8.76 0 a4.38 4.38 0 1 0 -8.76 0z" fill="black"></path><path d="M118.12 542.5 a4.38 4.38 0 1 0 8.76 0 a4.38 4.38 0 1 0 -8.76 0zM13.12 857.5 a4.38 4.38 0 1 0 8.76 0 a4.38 4.38 0 1 0 -8.76 0z" fill="black"></path><path d="M643.12 927.5 a4.38 4.38 0 1 0 8.76 0 a4.38 4.38 0 1 0 -8.76 0zM713.12 927.5 a4.38 4.38 0 1 0 8.76 0 a4.38 4.38 0 1 0 -8.76 0z" fill="black"></path><path d="M1798.12 297.5 a4.38 4.38 0 1 0 8.76 0 a4.38 4.38 0 1 0 -8.76 0zM1693.12 402.5 a4.38 4.38 0 1 0 8.76 0 a4.38 4.38 0 1 0 -8.76 0z" fill="black"></path><path d="M258.12 542.5 a4.38 4.38 0 1 0 8.76 0 a4.38 4.38 0 1 0 -8.76 0zM153.12 682.5 a4.38 4.38 0 1 0 8.76 0 a4.38 4.38 0 1 0 -8.76 0z" fill="black"></path><path d="M1098.12 157.5 a4.38 4.38 0 1 0 8.76 0 a4.38 4.38 0 1 0 -8.76 0zM1098.12 87.5 a4.38 4.38 0 1 0 8.76 0 a4.38 4.38 0 1 0 -8.76 0z" fill="black"></path><path d="M2498.12 17.5 a4.38 4.38 0 1 0 8.76 0 a4.38 4.38 0 1 0 -8.76 0zM2463.12 332.5 a4.38 4.38 0 1 0 8.76 0 a4.38 4.38 0 1 0 -8.76 0z" fill="black"></path><path d="M258.12 472.5 a4.38 4.38 0 1 0 8.76 0 a4.38 4.38 0 1 0 -8.76 0zM13.12 367.5 a4.38 4.38 0 1 0 8.76 0 a4.38 4.38 0 1 0 -8.76 0z" fill="black"></path><path d="M2113.12 227.5 a4.38 4.38 0 1 0 8.76 0 a4.38 4.38 0 1 0 -8.76 0zM2358.12 472.5 a4.38 4.38 0 1 0 8.76 0 a4.38 4.38 0 1 0 -8.76 0z" fill="black"></path><path d="M1623.12 122.5 a4.38 4.38 0 1 0 8.76 0 a4.38 4.38 0 1 0 -8.76 0zM1693.12 367.5 a4.38 4.38 0 1 0 8.76 0 a4.38 4.38 0 1 0 -8.76 0z" fill="black"></path><path d="M468.12 87.5 a4.38 4.38 0 1 0 8.76 0 a4.38 4.38 0 1 0 -8.76 0zM468.12 17.5 a4.38 4.38 0 1 0 8.76 0 a4.38 4.38 0 1 0 -8.76 0z" fill="black"></path><path d="M433.12 227.5 a4.38 4.38 0 1 0 8.76 0 a4.38 4.38 0 1 0 -8.76 0zM293.12 332.5 a4.38 4.38 0 1 0 8.76 0 a4.38 4.38 0 1 0 -8.76 0z" fill="black"></path><path d="M2463.12 227.5 a4.38 4.38 0 1 0 8.76 0 a4.38 4.38 0 1 0 -8.76 0zM2463.12 297.5 a4.38 4.38 0 1 0 8.76 0 a4.38 4.38 0 1 0 -8.76 0z" fill="black"></path><path d="M328.12 332.5 a4.38 4.38 0 1 0 8.76 0 a4.38 4.38 0 1 0 -8.76 0zM538.12 437.5 a4.38 4.38 0 1 0 8.76 0 a4.38 4.38 0 1 0 -8.76 0z" fill="black"></path><path d="M1413.12 682.5 a4.38 4.38 0 1 0 8.76 0 a4.38 4.38 0 1 0 -8.76 0zM1308.12 542.5 a4.38 4.38 0 1 0 8.76 0 a4.38 4.38 0 1 0 -8.76 0z" fill="black"></path><path d="M1413.12 367.5 a4.38 4.38 0 1 0 8.76 0 a4.38 4.38 0 1 0 -8.76 0zM1798.12 997.5 a4.38 4.38 0 1 0 8.76 0 a4.38 4.38 0 1 0 -8.76 0z" fill="black"></path><path d="M2008.12 472.5 a4.38 4.38 0 1 0 8.76 0 a4.38 4.38 0 1 0 -8.76 0zM2148.12 297.5 a4.38 4.38 0 1 0 8.76 0 a4.38 4.38 0 1 0 -8.76 0z" fill="black"></path><path d="M1343.12 297.5 a4.38 4.38 0 1 0 8.76 0 a4.38 4.38 0 1 0 -8.76 0zM2008.12 787.5 a4.38 4.38 0 1 0 8.76 0 a4.38 4.38 0 1 0 -8.76 0z" fill="black"></path><path d="M2288.12 367.5 a4.38 4.38 0 1 0 8.76 0 a4.38 4.38 0 1 0 -8.76 0zM2358.12 297.5 a4.38 4.38 0 1 0 8.76 0 a4.38 4.38 0 1 0 -8.76 0z" fill="black"></path><path d="M1798.12 192.5 a4.38 4.38 0 1 0 8.76 0 a4.38 4.38 0 1 0 -8.76 0zM2428.12 297.5 a4.38 4.38 0 1 0 8.76 0 a4.38 4.38 0 1 0 -8.76 0z" fill="black"></path><path d="M783.12 17.5 a4.38 4.38 0 1 0 8.76 0 a4.38 4.38 0 1 0 -8.76 0zM538.12 262.5 a4.38 4.38 0 1 0 8.76 0 a4.38 4.38 0 1 0 -8.76 0z" fill="black"></path><path d="M2148.12 542.5 a4.38 4.38 0 1 0 8.76 0 a4.38 4.38 0 1 0 -8.76 0zM1868.12 612.5 a4.38 4.38 0 1 0 8.76 0 a4.38 4.38 0 1 0 -8.76 0z" fill="black"></path><path d="M1903.12 87.5 a4.38 4.38 0 1 0 8.76 0 a4.38 4.38 0 1 0 -8.76 0zM2078.12 17.5 a4.38 4.38 0 1 0 8.76 0 a4.38 4.38 0 1 0 -8.76 0z" fill="black"></path><path d="M2043.12 612.5 a4.38 4.38 0 1 0 8.76 0 a4.38 4.38 0 1 0 -8.76 0zM2043.12 507.5 a4.38 4.38 0 1 0 8.76 0 a4.38 4.38 0 1 0 -8.76 0z" fill="black"></path><path d="M363.12 192.5 a4.38 4.38 0 1 0 8.76 0 a4.38 4.38 0 1 0 -8.76 0zM538.12 227.5 a4.38 4.38 0 1 0 8.76 0 a4.38 4.38 0 1 0 -8.76 0z" fill="black"></path><path d="M2218.12 157.5 a4.38 4.38 0 1 0 8.76 0 a4.38 4.38 0 1 0 -8.76 0zM1728.12 437.5 a4.38 4.38 0 1 0 8.76 0 a4.38 4.38 0 1 0 -8.76 0z" fill="black"></path><path d="M748.12 647.5 a4.38 4.38 0 1 0 8.76 0 a4.38 4.38 0 1 0 -8.76 0zM1098.12 332.5 a4.38 4.38 0 1 0 8.76 0 a4.38 4.38 0 1 0 -8.76 0z" fill="black"></path><path d="M1483.12 262.5 a4.38 4.38 0 1 0 8.76 0 a4.38 4.38 0 1 0 -8.76 0zM1308.12 227.5 a4.38 4.38 0 1 0 8.76 0 a4.38 4.38 0 1 0 -8.76 0z" fill="black"></path><path d="M258.12 857.5 a4.38 4.38 0 1 0 8.76 0 a4.38 4.38 0 1 0 -8.76 0zM293.12 752.5 a4.38 4.38 0 1 0 8.76 0 a4.38 4.38 0 1 0 -8.76 0z" fill="black"></path><path d="M1763.12 192.5 a4.38 4.38 0 1 0 8.76 0 a4.38 4.38 0 1 0 -8.76 0zM2008.12 87.5 a4.38 4.38 0 1 0 8.76 0 a4.38 4.38 0 1 0 -8.76 0z" fill="black"></path><path d="M1168.12 157.5 a4.38 4.38 0 1 0 8.76 0 a4.38 4.38 0 1 0 -8.76 0zM1238.12 87.5 a4.38 4.38 0 1 0 8.76 0 a4.38 4.38 0 1 0 -8.76 0z" fill="black"></path><path d="M643.12 892.5 a4.38 4.38 0 1 0 8.76 0 a4.38 4.38 0 1 0 -8.76 0zM713.12 892.5 a4.38 4.38 0 1 0 8.76 0 a4.38 4.38 0 1 0 -8.76 0z" fill="black"></path><path d="M1098.12 927.5 a4.38 4.38 0 1 0 8.76 0 a4.38 4.38 0 1 0 -8.76 0zM818.12 857.5 a4.38 4.38 0 1 0 8.76 0 a4.38 4.38 0 1 0 -8.76 0z" fill="black"></path><path d="M1763.12 717.5 a4.38 4.38 0 1 0 8.76 0 a4.38 4.38 0 1 0 -8.76 0zM2183.12 717.5 a4.38 4.38 0 1 0 8.76 0 a4.38 4.38 0 1 0 -8.76 0z" fill="black"></path><path d="M2428.12 612.5 a4.38 4.38 0 1 0 8.76 0 a4.38 4.38 0 1 0 -8.76 0zM2428.12 472.5 a4.38 4.38 0 1 0 8.76 0 a4.38 4.38 0 1 0 -8.76 0z" fill="black"></path><path d="M1553.12 262.5 a4.38 4.38 0 1 0 8.76 0 a4.38 4.38 0 1 0 -8.76 0zM1413.12 122.5 a4.38 4.38 0 1 0 8.76 0 a4.38 4.38 0 1 0 -8.76 0z" fill="black"></path><path d="M1938.12 857.5 a4.38 4.38 0 1 0 8.76 0 a4.38 4.38 0 1 0 -8.76 0zM1938.12 997.5 a4.38 4.38 0 1 0 8.76 0 a4.38 4.38 0 1 0 -8.76 0z" fill="black"></path><path d="M2288.12 227.5 a4.38 4.38 0 1 0 8.76 0 a4.38 4.38 0 1 0 -8.76 0zM2148.12 227.5 a4.38 4.38 0 1 0 8.76 0 a4.38 4.38 0 1 0 -8.76 0z" fill="black"></path><path d="M2358.12 52.5 a4.38 4.38 0 1 0 8.76 0 a4.38 4.38 0 1 0 -8.76 0zM2358.12 157.5 a4.38 4.38 0 1 0 8.76 0 a4.38 4.38 0 1 0 -8.76 0z" fill="black"></path><path d="M713.12 402.5 a4.38 4.38 0 1 0 8.76 0 a4.38 4.38 0 1 0 -8.76 0zM958.12 262.5 a4.38 4.38 0 1 0 8.76 0 a4.38 4.38 0 1 0 -8.76 0z" fill="black"></path><path d="M678.12 332.5 a4.38 4.38 0 1 0 8.76 0 a4.38 4.38 0 1 0 -8.76 0zM608.12 437.5 a4.38 4.38 0 1 0 8.76 0 a4.38 4.38 0 1 0 -8.76 0z" fill="black"></path><path d="M83.12 612.5 a4.38 4.38 0 1 0 8.76 0 a4.38 4.38 0 1 0 -8.76 0zM13.12 787.5 a4.38 4.38 0 1 0 8.76 0 a4.38 4.38 0 1 0 -8.76 0z" fill="black"></path><path d="M1518.12 962.5 a4.38 4.38 0 1 0 8.76 0 a4.38 4.38 0 1 0 -8.76 0zM1623.12 612.5 a4.38 4.38 0 1 0 8.76 0 a4.38 4.38 0 1 0 -8.76 0z" fill="black"></path><path d="M468.12 682.5 a4.38 4.38 0 1 0 8.76 0 a4.38 4.38 0 1 0 -8.76 0zM363.12 717.5 a4.38 4.38 0 1 0 8.76 0 a4.38 4.38 0 1 0 -8.76 0z" fill="black"></path><path d="M1903.12 402.5 a4.38 4.38 0 1 0 8.76 0 a4.38 4.38 0 1 0 -8.76 0zM2148.12 192.5 a4.38 4.38 0 1 0 8.76 0 a4.38 4.38 0 1 0 -8.76 0z" fill="black"></path><path d="M1868.12 402.5 a4.38 4.38 0 1 0 8.76 0 a4.38 4.38 0 1 0 -8.76 0zM1868.12 577.5 a4.38 4.38 0 1 0 8.76 0 a4.38 4.38 0 1 0 -8.76 0z" fill="black"></path><path d="M188.12 507.5 a4.38 4.38 0 1 0 8.76 0 a4.38 4.38 0 1 0 -8.76 0zM258.12 402.5 a4.38 4.38 0 1 0 8.76 0 a4.38 4.38 0 1 0 -8.76 0z" fill="black"></path><path d="M1658.12 927.5 a4.38 4.38 0 1 0 8.76 0 a4.38 4.38 0 1 0 -8.76 0zM1623.12 857.5 a4.38 4.38 0 1 0 8.76 0 a4.38 4.38 0 1 0 -8.76 0z" fill="black"></path><path d="M713.12 857.5 a4.38 4.38 0 1 0 8.76 0 a4.38 4.38 0 1 0 -8.76 0zM573.12 717.5 a4.38 4.38 0 1 0 8.76 0 a4.38 4.38 0 1 0 -8.76 0z" fill="black"></path><path d="M83.12 577.5 a4.38 4.38 0 1 0 8.76 0 a4.38 4.38 0 1 0 -8.76 0zM13.12 647.5 a4.38 4.38 0 1 0 8.76 0 a4.38 4.38 0 1 0 -8.76 0z" fill="black"></path><path d="M258.12 787.5 a4.38 4.38 0 1 0 8.76 0 a4.38 4.38 0 1 0 -8.76 0zM48.12 962.5 a4.38 4.38 0 1 0 8.76 0 a4.38 4.38 0 1 0 -8.76 0z" fill="black"></path><path d="M433.12 402.5 a4.38 4.38 0 1 0 8.76 0 a4.38 4.38 0 1 0 -8.76 0zM433.12 297.5 a4.38 4.38 0 1 0 8.76 0 a4.38 4.38 0 1 0 -8.76 0z" fill="black"></path><path d="M1798.12 52.5 a4.38 4.38 0 1 0 8.76 0 a4.38 4.38 0 1 0 -8.76 0zM1133.12 17.5 a4.38 4.38 0 1 0 8.76 0 a4.38 4.38 0 1 0 -8.76 0z" fill="black"></path><path d="M923.12 367.5 a4.38 4.38 0 1 0 8.76 0 a4.38 4.38 0 1 0 -8.76 0zM1063.12 332.5 a4.38 4.38 0 1 0 8.76 0 a4.38 4.38 0 1 0 -8.76 0z" fill="black"></path><path d="M2253.12 437.5 a4.38 4.38 0 1 0 8.76 0 a4.38 4.38 0 1 0 -8.76 0zM2113.12 367.5 a4.38 4.38 0 1 0 8.76 0 a4.38 4.38 0 1 0 -8.76 0z" fill="black"></path><path d="M2253.12 647.5 a4.38 4.38 0 1 0 8.76 0 a4.38 4.38 0 1 0 -8.76 0zM2393.12 507.5 a4.38 4.38 0 1 0 8.76 0 a4.38 4.38 0 1 0 -8.76 0z" fill="black"></path><path d="M853.12 192.5 a4.38 4.38 0 1 0 8.76 0 a4.38 4.38 0 1 0 -8.76 0zM1098.12 17.5 a4.38 4.38 0 1 0 8.76 0 a4.38 4.38 0 1 0 -8.76 0z" fill="black"></path><path d="M1203.12 717.5 a4.38 4.38 0 1 0 8.76 0 a4.38 4.38 0 1 0 -8.76 0zM1133.12 787.5 a4.38 4.38 0 1 0 8.76 0 a4.38 4.38 0 1 0 -8.76 0z" fill="black"></path><path d="M118.12 17.5 a4.38 4.38 0 1 0 8.76 0 a4.38 4.38 0 1 0 -8.76 0zM13.12 87.5 a4.38 4.38 0 1 0 8.76 0 a4.38 4.38 0 1 0 -8.76 0z" fill="black"></path><path d="M1273.12 787.5 a4.38 4.38 0 1 0 8.76 0 a4.38 4.38 0 1 0 -8.76 0zM1273.12 927.5 a4.38 4.38 0 1 0 8.76 0 a4.38 4.38 0 1 0 -8.76 0z" fill="black"></path><path d="M1868.12 927.5 a4.38 4.38 0 1 0 8.76 0 a4.38 4.38 0 1 0 -8.76 0zM1763.12 927.5 a4.38 4.38 0 1 0 8.76 0 a4.38 4.38 0 1 0 -8.76 0z" fill="black"></path><path d="M1903.12 52.5 a4.38 4.38 0 1 0 8.76 0 a4.38 4.38 0 1 0 -8.76 0zM2008.12 17.5 a4.38 4.38 0 1 0 8.76 0 a4.38 4.38 0 1 0 -8.76 0z" fill="black"></path><path d="M503.12 892.5 a4.38 4.38 0 1 0 8.76 0 a4.38 4.38 0 1 0 -8.76 0zM223.12 962.5 a4.38 4.38 0 1 0 8.76 0 a4.38 4.38 0 1 0 -8.76 0z" fill="black"></path><path d="M1973.12 402.5 a4.38 4.38 0 1 0 8.76 0 a4.38 4.38 0 1 0 -8.76 0zM1833.12 507.5 a4.38 4.38 0 1 0 8.76 0 a4.38 4.38 0 1 0 -8.76 0z" fill="black"></path><path d="M1833.12 437.5 a4.38 4.38 0 1 0 8.76 0 a4.38 4.38 0 1 0 -8.76 0zM1903.12 437.5 a4.38 4.38 0 1 0 8.76 0 a4.38 4.38 0 1 0 -8.76 0z" fill="black"></path><path d="M1028.12 402.5 a4.38 4.38 0 1 0 8.76 0 a4.38 4.38 0 1 0 -8.76 0zM783.12 612.5 a4.38 4.38 0 1 0 8.76 0 a4.38 4.38 0 1 0 -8.76 0z" fill="black"></path><path d="M83.12 262.5 a4.38 4.38 0 1 0 8.76 0 a4.38 4.38 0 1 0 -8.76 0zM83.12 332.5 a4.38 4.38 0 1 0 8.76 0 a4.38 4.38 0 1 0 -8.76 0z" fill="black"></path><path d="M468.12 612.5 a4.38 4.38 0 1 0 8.76 0 a4.38 4.38 0 1 0 -8.76 0zM538.12 682.5 a4.38 4.38 0 1 0 8.76 0 a4.38 4.38 0 1 0 -8.76 0z" fill="black"></path><path d="M1343.12 752.5 a4.38 4.38 0 1 0 8.76 0 a4.38 4.38 0 1 0 -8.76 0zM1308.12 927.5 a4.38 4.38 0 1 0 8.76 0 a4.38 4.38 0 1 0 -8.76 0z" fill="black"></path><path d="M1238.12 367.5 a4.38 4.38 0 1 0 8.76 0 a4.38 4.38 0 1 0 -8.76 0zM888.12 682.5 a4.38 4.38 0 1 0 8.76 0 a4.38 4.38 0 1 0 -8.76 0z" fill="black"></path><path d="M853.12 822.5 a4.38 4.38 0 1 0 8.76 0 a4.38 4.38 0 1 0 -8.76 0zM853.12 752.5 a4.38 4.38 0 1 0 8.76 0 a4.38 4.38 0 1 0 -8.76 0z" fill="black"></path><path d="M1553.12 157.5 a4.38 4.38 0 1 0 8.76 0 a4.38 4.38 0 1 0 -8.76 0zM1448.12 122.5 a4.38 4.38 0 1 0 8.76 0 a4.38 4.38 0 1 0 -8.76 0z" fill="black"></path><path d="M48.12 752.5 a4.38 4.38 0 1 0 8.76 0 a4.38 4.38 0 1 0 -8.76 0zM83.12 647.5 a4.38 4.38 0 1 0 8.76 0 a4.38 4.38 0 1 0 -8.76 0z" fill="black"></path><path d="M1448.12 227.5 a4.38 4.38 0 1 0 8.76 0 a4.38 4.38 0 1 0 -8.76 0zM1343.12 227.5 a4.38 4.38 0 1 0 8.76 0 a4.38 4.38 0 1 0 -8.76 0z" fill="black"></path><path d="M958.12 822.5 a4.38 4.38 0 1 0 8.76 0 a4.38 4.38 0 1 0 -8.76 0zM1133.12 857.5 a4.38 4.38 0 1 0 8.76 0 a4.38 4.38 0 1 0 -8.76 0z" fill="black"></path><path d="M993.12 682.5 a4.38 4.38 0 1 0 8.76 0 a4.38 4.38 0 1 0 -8.76 0zM1483.12 787.5 a4.38 4.38 0 1 0 8.76 0 a4.38 4.38 0 1 0 -8.76 0z" fill="black"></path><path d="M1658.12 577.5 a4.38 4.38 0 1 0 8.76 0 a4.38 4.38 0 1 0 -8.76 0zM1448.12 367.5 a4.38 4.38 0 1 0 8.76 0 a4.38 4.38 0 1 0 -8.76 0z" fill="black"></path><path d="M1133.12 227.5 a4.38 4.38 0 1 0 8.76 0 a4.38 4.38 0 1 0 -8.76 0zM1238.12 122.5 a4.38 4.38 0 1 0 8.76 0 a4.38 4.38 0 1 0 -8.76 0z" fill="black"></path><path d="M1903.12 647.5 a4.38 4.38 0 1 0 8.76 0 a4.38 4.38 0 1 0 -8.76 0zM2043.12 787.5 a4.38 4.38 0 1 0 8.76 0 a4.38 4.38 0 1 0 -8.76 0z" fill="black"></path><path d="M13.12 612.5 a4.38 4.38 0 1 0 8.76 0 a4.38 4.38 0 1 0 -8.76 0zM223.12 402.5 a4.38 4.38 0 1 0 8.76 0 a4.38 4.38 0 1 0 -8.76 0z" fill="black"></path><path d="M1378.12 542.5 a4.38 4.38 0 1 0 8.76 0 a4.38 4.38 0 1 0 -8.76 0zM1518.12 682.5 a4.38 4.38 0 1 0 8.76 0 a4.38 4.38 0 1 0 -8.76 0z" fill="black"></path><path d="M818.12 157.5 a4.38 4.38 0 1 0 8.76 0 a4.38 4.38 0 1 0 -8.76 0zM748.12 157.5 a4.38 4.38 0 1 0 8.76 0 a4.38 4.38 0 1 0 -8.76 0z" fill="black"></path><path d="M2183.12 647.5 a4.38 4.38 0 1 0 8.76 0 a4.38 4.38 0 1 0 -8.76 0zM1903.12 612.5 a4.38 4.38 0 1 0 8.76 0 a4.38 4.38 0 1 0 -8.76 0z" fill="black"></path><path d="M573.12 997.5 a4.38 4.38 0 1 0 8.76 0 a4.38 4.38 0 1 0 -8.76 0zM573.12 752.5 a4.38 4.38 0 1 0 8.76 0 a4.38 4.38 0 1 0 -8.76 0z" fill="black"></path><path d="M2323.12 87.5 a4.38 4.38 0 1 0 8.76 0 a4.38 4.38 0 1 0 -8.76 0zM2218.12 17.5 a4.38 4.38 0 1 0 8.76 0 a4.38 4.38 0 1 0 -8.76 0z" fill="black"></path><path d="M2078.12 892.5 a4.38 4.38 0 1 0 8.76 0 a4.38 4.38 0 1 0 -8.76 0zM2113.12 787.5 a4.38 4.38 0 1 0 8.76 0 a4.38 4.38 0 1 0 -8.76 0z" fill="black"></path><path d="M363.12 927.5 a4.38 4.38 0 1 0 8.76 0 a4.38 4.38 0 1 0 -8.76 0zM293.12 962.5 a4.38 4.38 0 1 0 8.76 0 a4.38 4.38 0 1 0 -8.76 0z" fill="black"></path><path d="M748.12 332.5 a4.38 4.38 0 1 0 8.76 0 a4.38 4.38 0 1 0 -8.76 0zM643.12 262.5 a4.38 4.38 0 1 0 8.76 0 a4.38 4.38 0 1 0 -8.76 0z" fill="black"></path><path d="M2218.12 962.5 a4.38 4.38 0 1 0 8.76 0 a4.38 4.38 0 1 0 -8.76 0zM2218.12 717.5 a4.38 4.38 0 1 0 8.76 0 a4.38 4.38 0 1 0 -8.76 0z" fill="black"></path><path d="M1308.12 332.5 a4.38 4.38 0 1 0 8.76 0 a4.38 4.38 0 1 0 -8.76 0zM1378.12 402.5 a4.38 4.38 0 1 0 8.76 0 a4.38 4.38 0 1 0 -8.76 0z" fill="black"></path><path d="M1518.12 612.5 a4.38 4.38 0 1 0 8.76 0 a4.38 4.38 0 1 0 -8.76 0zM1413.12 507.5 a4.38 4.38 0 1 0 8.76 0 a4.38 4.38 0 1 0 -8.76 0z" fill="black"></path><path d="M853.12 997.5 a4.38 4.38 0 1 0 8.76 0 a4.38 4.38 0 1 0 -8.76 0zM853.12 892.5 a4.38 4.38 0 1 0 8.76 0 a4.38 4.38 0 1 0 -8.76 0z" fill="black"></path><path d="M188.12 402.5 a4.38 4.38 0 1 0 8.76 0 a4.38 4.38 0 1 0 -8.76 0zM13.12 577.5 a4.38 4.38 0 1 0 8.76 0 a4.38 4.38 0 1 0 -8.76 0z" fill="black"></path><path d="M993.12 612.5 a4.38 4.38 0 1 0 8.76 0 a4.38 4.38 0 1 0 -8.76 0zM1343.12 402.5 a4.38 4.38 0 1 0 8.76 0 a4.38 4.38 0 1 0 -8.76 0z" fill="black"></path><path d="M888.12 997.5 a4.38 4.38 0 1 0 8.76 0 a4.38 4.38 0 1 0 -8.76 0zM888.12 892.5 a4.38 4.38 0 1 0 8.76 0 a4.38 4.38 0 1 0 -8.76 0z" fill="black"></path><path d="M678.12 577.5 a4.38 4.38 0 1 0 8.76 0 a4.38 4.38 0 1 0 -8.76 0zM993.12 402.5 a4.38 4.38 0 1 0 8.76 0 a4.38 4.38 0 1 0 -8.76 0z" fill="black"></path><path d="M2428.12 752.5 a4.38 4.38 0 1 0 8.76 0 a4.38 4.38 0 1 0 -8.76 0zM2358.12 577.5 a4.38 4.38 0 1 0 8.76 0 a4.38 4.38 0 1 0 -8.76 0z" fill="black"></path><path d="M2078.12 577.5 a4.38 4.38 0 1 0 8.76 0 a4.38 4.38 0 1 0 -8.76 0zM2218.12 577.5 a4.38 4.38 0 1 0 8.76 0 a4.38 4.38 0 1 0 -8.76 0z" fill="black"></path><path d="M503.12 367.5 a4.38 4.38 0 1 0 8.76 0 a4.38 4.38 0 1 0 -8.76 0zM398.12 297.5 a4.38 4.38 0 1 0 8.76 0 a4.38 4.38 0 1 0 -8.76 0z" fill="black"></path><path d="M503.12 87.5 a4.38 4.38 0 1 0 8.76 0 a4.38 4.38 0 1 0 -8.76 0zM538.12 192.5 a4.38 4.38 0 1 0 8.76 0 a4.38 4.38 0 1 0 -8.76 0z" fill="black"></path><path d="M993.12 752.5 a4.38 4.38 0 1 0 8.76 0 a4.38 4.38 0 1 0 -8.76 0zM993.12 892.5 a4.38 4.38 0 1 0 8.76 0 a4.38 4.38 0 1 0 -8.76 0z" fill="black"></path><path d="M503.12 962.5 a4.38 4.38 0 1 0 8.76 0 a4.38 4.38 0 1 0 -8.76 0zM538.12 752.5 a4.38 4.38 0 1 0 8.76 0 a4.38 4.38 0 1 0 -8.76 0z" fill="black"></path><path d="M608.12 122.5 a4.38 4.38 0 1 0 8.76 0 a4.38 4.38 0 1 0 -8.76 0zM608.12 17.5 a4.38 4.38 0 1 0 8.76 0 a4.38 4.38 0 1 0 -8.76 0z" fill="black"></path><path d="M1798.12 437.5 a4.38 4.38 0 1 0 8.76 0 a4.38 4.38 0 1 0 -8.76 0zM1903.12 507.5 a4.38 4.38 0 1 0 8.76 0 a4.38 4.38 0 1 0 -8.76 0z" fill="black"></path><path d="M2358.12 857.5 a4.38 4.38 0 1 0 8.76 0 a4.38 4.38 0 1 0 -8.76 0zM2253.12 787.5 a4.38 4.38 0 1 0 8.76 0 a4.38 4.38 0 1 0 -8.76 0z" fill="black"></path><path d="M1133.12 507.5 a4.38 4.38 0 1 0 8.76 0 a4.38 4.38 0 1 0 -8.76 0zM1308.12 437.5 a4.38 4.38 0 1 0 8.76 0 a4.38 4.38 0 1 0 -8.76 0z" fill="black"></path><path d="M1098.12 647.5 a4.38 4.38 0 1 0 8.76 0 a4.38 4.38 0 1 0 -8.76 0zM1098.12 542.5 a4.38 4.38 0 1 0 8.76 0 a4.38 4.38 0 1 0 -8.76 0z" fill="black"></path><path d="M2148.12 52.5 a4.38 4.38 0 1 0 8.76 0 a4.38 4.38 0 1 0 -8.76 0zM2148.12 122.5 a4.38 4.38 0 1 0 8.76 0 a4.38 4.38 0 1 0 -8.76 0z" fill="black"></path><path d="M1028.12 227.5 a4.38 4.38 0 1 0 8.76 0 a4.38 4.38 0 1 0 -8.76 0zM1168.12 122.5 a4.38 4.38 0 1 0 8.76 0 a4.38 4.38 0 1 0 -8.76 0z" fill="black"></path><path d="M13.12 227.5 a4.38 4.38 0 1 0 8.76 0 a4.38 4.38 0 1 0 -8.76 0zM153.12 227.5 a4.38 4.38 0 1 0 8.76 0 a4.38 4.38 0 1 0 -8.76 0z" fill="black"></path><path d="M433.12 542.5 a4.38 4.38 0 1 0 8.76 0 a4.38 4.38 0 1 0 -8.76 0zM223.12 682.5 a4.38 4.38 0 1 0 8.76 0 a4.38 4.38 0 1 0 -8.76 0z" fill="black"></path><path d="M2253.12 682.5 a4.38 4.38 0 1 0 8.76 0 a4.38 4.38 0 1 0 -8.76 0zM2393.12 682.5 a4.38 4.38 0 1 0 8.76 0 a4.38 4.38 0 1 0 -8.76 0z" fill="black"></path><path d="M678.12 87.5 a4.38 4.38 0 1 0 8.76 0 a4.38 4.38 0 1 0 -8.76 0zM643.12 17.5 a4.38 4.38 0 1 0 8.76 0 a4.38 4.38 0 1 0 -8.76 0z" fill="black"></path><path d="M2008.12 332.5 a4.38 4.38 0 1 0 8.76 0 a4.38 4.38 0 1 0 -8.76 0zM2078.12 262.5 a4.38 4.38 0 1 0 8.76 0 a4.38 4.38 0 1 0 -8.76 0z" fill="black"></path><path d="M1168.12 472.5 a4.38 4.38 0 1 0 8.76 0 a4.38 4.38 0 1 0 -8.76 0zM1273.12 472.5 a4.38 4.38 0 1 0 8.76 0 a4.38 4.38 0 1 0 -8.76 0z" fill="black"></path><path d="M678.12 857.5 a4.38 4.38 0 1 0 8.76 0 a4.38 4.38 0 1 0 -8.76 0zM608.12 857.5 a4.38 4.38 0 1 0 8.76 0 a4.38 4.38 0 1 0 -8.76 0z" fill="black"></path><path d="M1203.12 577.5 a4.38 4.38 0 1 0 8.76 0 a4.38 4.38 0 1 0 -8.76 0zM1133.12 542.5 a4.38 4.38 0 1 0 8.76 0 a4.38 4.38 0 1 0 -8.76 0z" fill="black"></path><path d="M363.12 542.5 a4.38 4.38 0 1 0 8.76 0 a4.38 4.38 0 1 0 -8.76 0zM258.12 647.5 a4.38 4.38 0 1 0 8.76 0 a4.38 4.38 0 1 0 -8.76 0z" fill="black"></path><path d="M1028.12 87.5 a4.38 4.38 0 1 0 8.76 0 a4.38 4.38 0 1 0 -8.76 0zM958.12 157.5 a4.38 4.38 0 1 0 8.76 0 a4.38 4.38 0 1 0 -8.76 0z" fill="black"></path><path d="M1903.12 787.5 a4.38 4.38 0 1 0 8.76 0 a4.38 4.38 0 1 0 -8.76 0zM1903.12 857.5 a4.38 4.38 0 1 0 8.76 0 a4.38 4.38 0 1 0 -8.76 0z" fill="black"></path><path d="M153.12 577.5 a4.38 4.38 0 1 0 8.76 0 a4.38 4.38 0 1 0 -8.76 0zM363.12 472.5 a4.38 4.38 0 1 0 8.76 0 a4.38 4.38 0 1 0 -8.76 0z" fill="black"></path><path d="M1203.12 752.5 a4.38 4.38 0 1 0 8.76 0 a4.38 4.38 0 1 0 -8.76 0zM1238.12 892.5 a4.38 4.38 0 1 0 8.76 0 a4.38 4.38 0 1 0 -8.76 0z" fill="black"></path><path d="M1658.12 997.5 a4.38 4.38 0 1 0 8.76 0 a4.38 4.38 0 1 0 -8.76 0zM1448.12 997.5 a4.38 4.38 0 1 0 8.76 0 a4.38 4.38 0 1 0 -8.76 0z" fill="black"></path><path d="M783.12 332.5 a4.38 4.38 0 1 0 8.76 0 a4.38 4.38 0 1 0 -8.76 0zM678.12 227.5 a4.38 4.38 0 1 0 8.76 0 a4.38 4.38 0 1 0 -8.76 0z" fill="black"></path><path d="M2358.12 332.5 a4.38 4.38 0 1 0 8.76 0 a4.38 4.38 0 1 0 -8.76 0zM2323.12 402.5 a4.38 4.38 0 1 0 8.76 0 a4.38 4.38 0 1 0 -8.76 0z" fill="black"></path><path d="M153.12 787.5 a4.38 4.38 0 1 0 8.76 0 a4.38 4.38 0 1 0 -8.76 0zM48.12 927.5 a4.38 4.38 0 1 0 8.76 0 a4.38 4.38 0 1 0 -8.76 0z" fill="black"></path><path d="M1623.12 17.5 a4.38 4.38 0 1 0 8.76 0 a4.38 4.38 0 1 0 -8.76 0zM1518.12 17.5 a4.38 4.38 0 1 0 8.76 0 a4.38 4.38 0 1 0 -8.76 0z" fill="black"></path><path d="M2428.12 822.5 a4.38 4.38 0 1 0 8.76 0 a4.38 4.38 0 1 0 -8.76 0zM2428.12 962.5 a4.38 4.38 0 1 0 8.76 0 a4.38 4.38 0 1 0 -8.76 0z" fill="black"></path><path d="M1868.12 157.5 a4.38 4.38 0 1 0 8.76 0 a4.38 4.38 0 1 0 -8.76 0zM1938.12 157.5 a4.38 4.38 0 1 0 8.76 0 a4.38 4.38 0 1 0 -8.76 0z" fill="black"></path><path d="M643.12 437.5 a4.38 4.38 0 1 0 8.76 0 a4.38 4.38 0 1 0 -8.76 0zM643.12 297.5 a4.38 4.38 0 1 0 8.76 0 a4.38 4.38 0 1 0 -8.76 0z" fill="black"></path><path d="M748.12 437.5 a4.38 4.38 0 1 0 8.76 0 a4.38 4.38 0 1 0 -8.76 0zM678.12 437.5 a4.38 4.38 0 1 0 8.76 0 a4.38 4.38 0 1 0 -8.76 0z" fill="black"></path><path d="M2253.12 892.5 a4.38 4.38 0 1 0 8.76 0 a4.38 4.38 0 1 0 -8.76 0zM2393.12 892.5 a4.38 4.38 0 1 0 8.76 0 a4.38 4.38 0 1 0 -8.76 0z" fill="black"></path><path d="M258.12 192.5 a4.38 4.38 0 1 0 8.76 0 a4.38 4.38 0 1 0 -8.76 0zM328.12 192.5 a4.38 4.38 0 1 0 8.76 0 a4.38 4.38 0 1 0 -8.76 0z" fill="black"></path><path d="M2043.12 717.5 a4.38 4.38 0 1 0 8.76 0 a4.38 4.38 0 1 0 -8.76 0zM1938.12 577.5 a4.38 4.38 0 1 0 8.76 0 a4.38 4.38 0 1 0 -8.76 0z" fill="black"></path><path d="M1728.12 297.5 a4.38 4.38 0 1 0 8.76 0 a4.38 4.38 0 1 0 -8.76 0zM1903.12 227.5 a4.38 4.38 0 1 0 8.76 0 a4.38 4.38 0 1 0 -8.76 0z" fill="black"></path><path d="M818.12 122.5 a4.38 4.38 0 1 0 8.76 0 a4.38 4.38 0 1 0 -8.76 0zM748.12 122.5 a4.38 4.38 0 1 0 8.76 0 a4.38 4.38 0 1 0 -8.76 0z" fill="black"></path><path d="M1483.12 752.5 a4.38 4.38 0 1 0 8.76 0 a4.38 4.38 0 1 0 -8.76 0zM1448.12 682.5 a4.38 4.38 0 1 0 8.76 0 a4.38 4.38 0 1 0 -8.76 0z" fill="black"></path><path d="M1623.12 437.5 a4.38 4.38 0 1 0 8.76 0 a4.38 4.38 0 1 0 -8.76 0zM1868.12 682.5 a4.38 4.38 0 1 0 8.76 0 a4.38 4.38 0 1 0 -8.76 0z" fill="black"></path><path d="M818.12 577.5 a4.38 4.38 0 1 0 8.76 0 a4.38 4.38 0 1 0 -8.76 0zM993.12 437.5 a4.38 4.38 0 1 0 8.76 0 a4.38 4.38 0 1 0 -8.76 0z" fill="black"></path><path d="M1868.12 52.5 a4.38 4.38 0 1 0 8.76 0 a4.38 4.38 0 1 0 -8.76 0zM1798.12 17.5 a4.38 4.38 0 1 0 8.76 0 a4.38 4.38 0 1 0 -8.76 0z" fill="black"></path><path d="M573.12 122.5 a4.38 4.38 0 1 0 8.76 0 a4.38 4.38 0 1 0 -8.76 0zM538.12 17.5 a4.38 4.38 0 1 0 8.76 0 a4.38 4.38 0 1 0 -8.76 0z" fill="black"></path><path d="M1588.12 962.5 a4.38 4.38 0 1 0 8.76 0 a4.38 4.38 0 1 0 -8.76 0zM1728.12 997.5 a4.38 4.38 0 1 0 8.76 0 a4.38 4.38 0 1 0 -8.76 0z" fill="black"></path><path d="M923.12 787.5 a4.38 4.38 0 1 0 8.76 0 a4.38 4.38 0 1 0 -8.76 0zM1063.12 857.5 a4.38 4.38 0 1 0 8.76 0 a4.38 4.38 0 1 0 -8.76 0z" fill="black"></path><path d="M398.12 822.5 a4.38 4.38 0 1 0 8.76 0 a4.38 4.38 0 1 0 -8.76 0zM503.12 857.5 a4.38 4.38 0 1 0 8.76 0 a4.38 4.38 0 1 0 -8.76 0z" fill="black"></path><path d="M1518.12 402.5 a4.38 4.38 0 1 0 8.76 0 a4.38 4.38 0 1 0 -8.76 0zM1833.12 682.5 a4.38 4.38 0 1 0 8.76 0 a4.38 4.38 0 1 0 -8.76 0z" fill="black"></path><path d="M713.12 962.5 a4.38 4.38 0 1 0 8.76 0 a4.38 4.38 0 1 0 -8.76 0zM608.12 962.5 a4.38 4.38 0 1 0 8.76 0 a4.38 4.38 0 1 0 -8.76 0z" fill="black"></path><path d="M1588.12 437.5 a4.38 4.38 0 1 0 8.76 0 a4.38 4.38 0 1 0 -8.76 0zM1518.12 367.5 a4.38 4.38 0 1 0 8.76 0 a4.38 4.38 0 1 0 -8.76 0z" fill="black"></path><path d="M2358.12 17.5 a4.38 4.38 0 1 0 8.76 0 a4.38 4.38 0 1 0 -8.76 0zM2288.12 17.5 a4.38 4.38 0 1 0 8.76 0 a4.38 4.38 0 1 0 -8.76 0z" fill="black"></path><path d="M363.12 857.5 a4.38 4.38 0 1 0 8.76 0 a4.38 4.38 0 1 0 -8.76 0zM328.12 787.5 a4.38 4.38 0 1 0 8.76 0 a4.38 4.38 0 1 0 -8.76 0z" fill="black"></path><path d="M153.12 122.5 a4.38 4.38 0 1 0 8.76 0 a4.38 4.38 0 1 0 -8.76 0zM188.12 17.5 a4.38 4.38 0 1 0 8.76 0 a4.38 4.38 0 1 0 -8.76 0z" fill="black"></path><path d="M1168.12 962.5 a4.38 4.38 0 1 0 8.76 0 a4.38 4.38 0 1 0 -8.76 0zM1238.12 962.5 a4.38 4.38 0 1 0 8.76 0 a4.38 4.38 0 1 0 -8.76 0z" fill="black"></path><path d="M1413.12 752.5 a4.38 4.38 0 1 0 8.76 0 a4.38 4.38 0 1 0 -8.76 0zM1238.12 717.5 a4.38 4.38 0 1 0 8.76 0 a4.38 4.38 0 1 0 -8.76 0z" fill="black"></path><path d="M2078.12 962.5 a4.38 4.38 0 1 0 8.76 0 a4.38 4.38 0 1 0 -8.76 0zM2183.12 927.5 a4.38 4.38 0 1 0 8.76 0 a4.38 4.38 0 1 0 -8.76 0z" fill="black"></path><path d="M2113.12 682.5 a4.38 4.38 0 1 0 8.76 0 a4.38 4.38 0 1 0 -8.76 0zM1973.12 577.5 a4.38 4.38 0 1 0 8.76 0 a4.38 4.38 0 1 0 -8.76 0z" fill="black"></path><path d="M1203.12 822.5 a4.38 4.38 0 1 0 8.76 0 a4.38 4.38 0 1 0 -8.76 0zM1308.12 752.5 a4.38 4.38 0 1 0 8.76 0 a4.38 4.38 0 1 0 -8.76 0z" fill="black"></path><path d="M818.12 822.5 a4.38 4.38 0 1 0 8.76 0 a4.38 4.38 0 1 0 -8.76 0zM748.12 752.5 a4.38 4.38 0 1 0 8.76 0 a4.38 4.38 0 1 0 -8.76 0z" fill="black"></path><path d="M2358.12 752.5 a4.38 4.38 0 1 0 8.76 0 a4.38 4.38 0 1 0 -8.76 0zM2428.12 787.5 a4.38 4.38 0 1 0 8.76 0 a4.38 4.38 0 1 0 -8.76 0z" fill="black"></path><path d="M2323.12 787.5 a4.38 4.38 0 1 0 8.76 0 a4.38 4.38 0 1 0 -8.76 0zM2323.12 717.5 a4.38 4.38 0 1 0 8.76 0 a4.38 4.38 0 1 0 -8.76 0z" fill="black"></path><path d="M2463.12 52.5 a4.38 4.38 0 1 0 8.76 0 a4.38 4.38 0 1 0 -8.76 0zM2428.12 227.5 a4.38 4.38 0 1 0 8.76 0 a4.38 4.38 0 1 0 -8.76 0z" fill="black"></path><path d="M1623.12 157.5 a4.38 4.38 0 1 0 8.76 0 a4.38 4.38 0 1 0 -8.76 0zM1553.12 122.5 a4.38 4.38 0 1 0 8.76 0 a4.38 4.38 0 1 0 -8.76 0z" fill="black"></path><path d="M958.12 752.5 a4.38 4.38 0 1 0 8.76 0 a4.38 4.38 0 1 0 -8.76 0zM888.12 752.5 a4.38 4.38 0 1 0 8.76 0 a4.38 4.38 0 1 0 -8.76 0z" fill="black"></path><path d="M608.12 542.5 a4.38 4.38 0 1 0 8.76 0 a4.38 4.38 0 1 0 -8.76 0zM538.12 507.5 a4.38 4.38 0 1 0 8.76 0 a4.38 4.38 0 1 0 -8.76 0z" fill="black"></path><path d="M2428.12 122.5 a4.38 4.38 0 1 0 8.76 0 a4.38 4.38 0 1 0 -8.76 0zM2428.12 17.5 a4.38 4.38 0 1 0 8.76 0 a4.38 4.38 0 1 0 -8.76 0z" fill="black"></path><path d="M1273.12 647.5 a4.38 4.38 0 1 0 8.76 0 a4.38 4.38 0 1 0 -8.76 0zM1203.12 647.5 a4.38 4.38 0 1 0 8.76 0 a4.38 4.38 0 1 0 -8.76 0z" fill="black"></path><path d="M48.12 402.5 a4.38 4.38 0 1 0 8.76 0 a4.38 4.38 0 1 0 -8.76 0zM13.12 542.5 a4.38 4.38 0 1 0 8.76 0 a4.38 4.38 0 1 0 -8.76 0z" fill="black"></path><path d="M853.12 367.5 a4.38 4.38 0 1 0 8.76 0 a4.38 4.38 0 1 0 -8.76 0zM888.12 437.5 a4.38 4.38 0 1 0 8.76 0 a4.38 4.38 0 1 0 -8.76 0z" fill="black"></path><path d="M48.12 472.5 a4.38 4.38 0 1 0 8.76 0 a4.38 4.38 0 1 0 -8.76 0zM153.12 402.5 a4.38 4.38 0 1 0 8.76 0 a4.38 4.38 0 1 0 -8.76 0z" fill="black"></path><path d="M1098.12 192.5 a4.38 4.38 0 1 0 8.76 0 a4.38 4.38 0 1 0 -8.76 0zM993.12 157.5 a4.38 4.38 0 1 0 8.76 0 a4.38 4.38 0 1 0 -8.76 0z" fill="black"></path><path d="M48.12 332.5 a4.38 4.38 0 1 0 8.76 0 a4.38 4.38 0 1 0 -8.76 0zM13.12 262.5 a4.38 4.38 0 1 0 8.76 0 a4.38 4.38 0 1 0 -8.76 0z" fill="black"></path><path d="M1308.12 612.5 a4.38 4.38 0 1 0 8.76 0 a4.38 4.38 0 1 0 -8.76 0zM1378.12 647.5 a4.38 4.38 0 1 0 8.76 0 a4.38 4.38 0 1 0 -8.76 0z" fill="black"></path><path d="M1378.12 822.5 a4.38 4.38 0 1 0 8.76 0 a4.38 4.38 0 1 0 -8.76 0zM1448.12 822.5 a4.38 4.38 0 1 0 8.76 0 a4.38 4.38 0 1 0 -8.76 0z" fill="black"></path><path d="M1973.12 367.5 a4.38 4.38 0 1 0 8.76 0 a4.38 4.38 0 1 0 -8.76 0zM2043.12 262.5 a4.38 4.38 0 1 0 8.76 0 a4.38 4.38 0 1 0 -8.76 0z" fill="black"></path><path d="M853.12 402.5 a4.38 4.38 0 1 0 8.76 0 a4.38 4.38 0 1 0 -8.76 0zM783.12 437.5 a4.38 4.38 0 1 0 8.76 0 a4.38 4.38 0 1 0 -8.76 0z" fill="black"></path><path d="M1728.12 157.5 a4.38 4.38 0 1 0 8.76 0 a4.38 4.38 0 1 0 -8.76 0zM1693.12 297.5 a4.38 4.38 0 1 0 8.76 0 a4.38 4.38 0 1 0 -8.76 0z" fill="black"></path><path d="M2323.12 857.5 a4.38 4.38 0 1 0 8.76 0 a4.38 4.38 0 1 0 -8.76 0zM2253.12 822.5 a4.38 4.38 0 1 0 8.76 0 a4.38 4.38 0 1 0 -8.76 0z" fill="black"></path><path d="M398.12 192.5 a4.38 4.38 0 1 0 8.76 0 a4.38 4.38 0 1 0 -8.76 0zM468.12 192.5 a4.38 4.38 0 1 0 8.76 0 a4.38 4.38 0 1 0 -8.76 0z" fill="black"></path><path d="M2043.12 857.5 a4.38 4.38 0 1 0 8.76 0 a4.38 4.38 0 1 0 -8.76 0zM2008.12 927.5 a4.38 4.38 0 1 0 8.76 0 a4.38 4.38 0 1 0 -8.76 0z" fill="black"></path><path d="M1553.12 962.5 a4.38 4.38 0 1 0 8.76 0 a4.38 4.38 0 1 0 -8.76 0zM1588.12 892.5 a4.38 4.38 0 1 0 8.76 0 a4.38 4.38 0 1 0 -8.76 0z" fill="black"></path><path d="M503.12 787.5 a4.38 4.38 0 1 0 8.76 0 a4.38 4.38 0 1 0 -8.76 0zM433.12 822.5 a4.38 4.38 0 1 0 8.76 0 a4.38 4.38 0 1 0 -8.76 0z" fill="black"></path><path d="M1063.12 822.5 a4.38 4.38 0 1 0 8.76 0 a4.38 4.38 0 1 0 -8.76 0zM993.12 787.5 a4.38 4.38 0 1 0 8.76 0 a4.38 4.38 0 1 0 -8.76 0z" fill="black"></path><path d="M1623.12 227.5 a4.38 4.38 0 1 0 8.76 0 a4.38 4.38 0 1 0 -8.76 0zM1623.12 332.5 a4.38 4.38 0 1 0 8.76 0 a4.38 4.38 0 1 0 -8.76 0z" fill="black"></path><path d="M2323.12 297.5 a4.38 4.38 0 1 0 8.76 0 a4.38 4.38 0 1 0 -8.76 0zM2218.12 297.5 a4.38 4.38 0 1 0 8.76 0 a4.38 4.38 0 1 0 -8.76 0z" fill="black"></path><path d="M2113.12 472.5 a4.38 4.38 0 1 0 8.76 0 a4.38 4.38 0 1 0 -8.76 0zM2183.12 507.5 a4.38 4.38 0 1 0 8.76 0 a4.38 4.38 0 1 0 -8.76 0z" fill="black"></path><path d="M748.12 542.5 a4.38 4.38 0 1 0 8.76 0 a4.38 4.38 0 1 0 -8.76 0zM678.12 507.5 a4.38 4.38 0 1 0 8.76 0 a4.38 4.38 0 1 0 -8.76 0z" fill="black"></path><path d="M1588.12 682.5 a4.38 4.38 0 1 0 8.76 0 a4.38 4.38 0 1 0 -8.76 0zM1588.12 787.5 a4.38 4.38 0 1 0 8.76 0 a4.38 4.38 0 1 0 -8.76 0z" fill="black"></path><path d="M118.12 262.5 a4.38 4.38 0 1 0 8.76 0 a4.38 4.38 0 1 0 -8.76 0zM118.12 332.5 a4.38 4.38 0 1 0 8.76 0 a4.38 4.38 0 1 0 -8.76 0z" fill="black"></path><path d="M1273.12 437.5 a4.38 4.38 0 1 0 8.76 0 a4.38 4.38 0 1 0 -8.76 0zM1203.12 437.5 a4.38 4.38 0 1 0 8.76 0 a4.38 4.38 0 1 0 -8.76 0z" fill="black"></path></mask></defs></svg>